<svg id="svg" version="1.1" xmlns="http://www.w3.org/2000/svg" xmlns:xlink="http://www.w3.org/1999/xlink" width="400" height="400" viewBox="0, 0, 400,400"><g id="svgg"><path id="path0" d="M143.400 118.800 C 143.536 119.020,143.277 119.200,142.824 119.200 C 142.371 119.200,142.000 119.380,142.000 119.600 C 142.000 119.820,141.728 120.000,141.396 120.000 C 141.064 120.000,140.228 120.540,139.537 121.200 C 138.846 121.860,138.116 122.400,137.915 122.400 C 137.713 122.400,136.680 123.291,135.620 124.379 C 134.560 125.468,133.581 126.248,133.446 126.113 C 133.311 125.977,133.200 126.177,133.200 126.557 C 133.200 126.937,133.065 127.185,132.900 127.108 C 132.515 126.929,126.838 132.705,127.121 132.988 C 127.238 133.105,127.003 133.200,126.600 133.200 C 126.197 133.200,125.977 133.311,126.113 133.446 C 126.248 133.581,125.468 134.560,124.379 135.620 C 123.291 136.680,122.400 137.713,122.400 137.915 C 122.400 138.116,121.860 138.846,121.200 139.537 C 120.540 140.228,120.000 141.064,120.000 141.396 C 120.000 141.728,119.820 142.000,119.600 142.000 C 119.380 142.000,119.200 142.371,119.200 142.824 C 119.200 143.277,119.020 143.536,118.800 143.400 C 118.537 143.238,118.400 146.529,118.400 152.976 C 118.400 159.259,118.544 162.800,118.800 162.800 C 119.020 162.800,119.200 163.120,119.200 163.512 C 119.200 163.903,119.560 164.483,120.000 164.800 C 120.440 165.117,120.800 165.657,120.800 166.000 C 120.800 166.343,121.160 166.883,121.600 167.200 C 122.040 167.517,122.400 168.097,122.400 168.488 C 122.400 168.880,122.580 169.200,122.800 169.200 C 123.020 169.200,123.200 169.740,123.200 170.400 C 123.200 171.060,123.380 171.600,123.600 171.600 C 123.820 171.600,124.000 172.148,124.000 172.818 C 124.000 173.530,124.374 174.437,124.900 174.999 C 126.319 176.517,127.008 177.371,126.905 177.487 C 126.853 177.546,127.168 178.231,127.605 179.009 C 128.042 179.788,128.400 181.049,128.400 181.812 C 128.400 182.575,128.580 183.200,128.800 183.200 C 129.020 183.200,129.200 183.560,129.200 184.000 C 129.200 184.440,129.380 184.800,129.600 184.800 C 129.820 184.800,130.000 185.025,130.000 185.300 C 130.001 185.575,130.466 186.340,131.035 187.000 C 131.604 187.660,132.363 188.695,132.721 189.300 C 133.079 189.905,133.514 190.400,133.686 190.400 C 133.859 190.400,134.000 193.550,134.000 197.400 C 134.000 201.800,133.851 204.400,133.600 204.400 C 133.380 204.400,133.200 204.643,133.200 204.941 C 133.200 205.238,132.660 206.046,132.000 206.737 C 131.340 207.428,130.800 208.264,130.800 208.596 C 130.800 208.928,130.620 209.200,130.400 209.200 C 130.180 209.200,130.000 209.470,130.000 209.800 C 130.000 210.130,129.820 210.400,129.600 210.400 C 129.380 210.400,129.200 210.940,129.200 211.600 C 129.200 212.260,129.020 212.800,128.800 212.800 C 128.541 212.800,128.400 217.459,128.400 225.976 C 128.400 234.329,128.546 239.243,128.800 239.400 C 129.020 239.536,129.200 240.087,129.200 240.624 C 129.200 241.161,129.380 241.600,129.600 241.600 C 129.820 241.600,130.000 241.920,130.000 242.312 C 130.000 242.703,130.360 243.283,130.800 243.600 C 131.240 243.917,131.600 244.406,131.600 244.686 C 131.600 244.966,132.680 246.292,134.000 247.632 C 135.320 248.973,136.400 250.240,136.400 250.448 C 136.400 251.001,138.827 253.308,140.103 253.968 C 140.706 254.280,141.200 254.754,141.200 255.021 C 141.200 255.652,144.348 258.800,144.979 258.800 C 145.246 258.800,145.720 259.280,146.032 259.866 C 146.711 261.140,149.033 263.600,149.558 263.600 C 149.763 263.600,151.027 264.680,152.368 266.000 C 153.708 267.320,154.986 268.400,155.206 268.400 C 155.427 268.400,156.172 268.940,156.863 269.600 C 157.554 270.260,158.441 270.800,158.836 270.800 C 159.230 270.800,159.664 270.980,159.800 271.200 C 159.936 271.420,160.566 271.600,161.200 271.600 C 161.834 271.600,162.464 271.780,162.600 272.000 C 162.736 272.220,163.197 272.400,163.624 272.400 C 164.051 272.400,164.400 272.550,164.400 272.732 C 164.400 272.915,164.895 273.320,165.500 273.632 C 166.105 273.945,166.819 274.380,167.086 274.600 C 167.353 274.820,167.841 275.225,168.169 275.500 C 168.498 275.775,169.404 276.000,170.183 276.000 C 170.962 276.000,171.600 276.180,171.600 276.400 C 171.600 276.620,172.140 276.800,172.800 276.800 C 173.460 276.800,174.000 276.958,174.000 277.151 C 174.000 277.345,174.538 277.726,175.195 277.998 C 175.852 278.270,176.301 278.636,176.193 278.812 C 176.084 278.987,176.536 279.370,177.198 279.663 C 177.859 279.956,178.400 280.331,178.400 280.498 C 178.400 280.664,178.670 280.800,179.000 280.800 C 179.330 280.800,179.600 280.980,179.600 281.200 C 179.600 281.461,186.667 281.600,200.000 281.600 C 213.333 281.600,220.400 281.461,220.400 281.200 C 220.400 280.980,220.670 280.800,221.000 280.800 C 221.330 280.800,221.600 280.620,221.600 280.400 C 221.600 280.180,221.825 280.000,222.100 280.000 C 222.375 279.999,223.080 279.594,223.666 279.100 C 224.253 278.605,225.110 277.885,225.571 277.500 C 226.032 277.115,226.857 276.800,227.405 276.800 C 227.952 276.800,228.400 276.620,228.400 276.400 C 228.400 276.180,229.043 276.000,229.829 276.000 C 230.614 276.000,231.508 275.775,231.815 275.500 C 232.812 274.606,233.381 274.210,234.500 273.632 C 235.105 273.320,235.600 272.915,235.600 272.732 C 235.600 272.550,235.949 272.400,236.376 272.400 C 236.803 272.400,237.264 272.220,237.400 272.000 C 237.536 271.780,238.166 271.600,238.800 271.600 C 239.434 271.600,240.064 271.420,240.200 271.200 C 240.336 270.980,240.770 270.800,241.164 270.800 C 241.559 270.800,242.446 270.260,243.137 269.600 C 243.828 268.940,244.573 268.400,244.794 268.400 C 245.014 268.400,246.292 267.320,247.632 266.000 C 248.973 264.680,250.240 263.600,250.448 263.600 C 251.001 263.600,253.308 261.173,253.968 259.897 C 254.280 259.294,254.754 258.800,255.021 258.800 C 255.652 258.800,258.800 255.652,258.800 255.021 C 258.800 254.754,259.294 254.280,259.897 253.968 C 261.173 253.308,263.600 251.001,263.600 250.448 C 263.600 250.240,264.680 248.973,266.000 247.632 C 267.320 246.292,268.400 244.966,268.400 244.686 C 268.400 244.406,268.760 243.917,269.200 243.600 C 269.640 243.283,270.000 242.703,270.000 242.312 C 270.000 241.920,270.180 241.600,270.400 241.600 C 270.620 241.600,270.800 241.161,270.800 240.624 C 270.800 240.087,270.980 239.536,271.200 239.400 C 271.454 239.243,271.600 234.329,271.600 225.976 C 271.600 217.459,271.459 212.800,271.200 212.800 C 270.980 212.800,270.800 212.260,270.800 211.600 C 270.800 210.940,270.620 210.400,270.400 210.400 C 270.180 210.400,270.000 210.130,270.000 209.800 C 270.000 209.470,269.820 209.200,269.600 209.200 C 269.380 209.200,269.200 208.928,269.200 208.596 C 269.200 208.264,268.660 207.428,268.000 206.737 C 267.340 206.046,266.800 205.238,266.800 204.941 C 266.800 204.643,266.620 204.400,266.400 204.400 C 266.149 204.400,266.000 201.800,266.000 197.400 C 266.000 193.550,266.141 190.400,266.314 190.400 C 266.486 190.400,266.921 189.905,267.279 189.300 C 267.637 188.695,268.396 187.660,268.965 187.000 C 269.534 186.340,269.999 185.575,270.000 185.300 C 270.000 185.025,270.180 184.800,270.400 184.800 C 270.620 184.800,270.800 184.440,270.800 184.000 C 270.800 183.560,270.980 183.200,271.200 183.200 C 271.420 183.200,271.600 182.587,271.600 181.838 C 271.600 179.954,273.219 176.940,275.500 174.575 C 275.775 174.290,276.000 173.504,276.000 172.829 C 276.000 172.153,276.180 171.600,276.400 171.600 C 276.620 171.600,276.800 171.060,276.800 170.400 C 276.800 169.740,276.980 169.200,277.200 169.200 C 277.420 169.200,277.600 168.880,277.600 168.488 C 277.600 168.097,277.960 167.517,278.400 167.200 C 278.840 166.883,279.200 166.343,279.200 166.000 C 279.200 165.657,279.560 165.117,280.000 164.800 C 280.440 164.483,280.800 163.903,280.800 163.512 C 280.800 163.120,280.980 162.800,281.200 162.800 C 281.456 162.800,281.600 159.259,281.600 152.976 C 281.600 146.529,281.463 143.238,281.200 143.400 C 280.980 143.536,280.800 143.277,280.800 142.824 C 280.800 142.371,280.620 142.000,280.400 142.000 C 280.180 142.000,280.000 141.728,280.000 141.396 C 280.000 141.064,279.460 140.228,278.800 139.537 C 278.140 138.846,277.600 138.124,277.600 137.931 C 277.600 137.561,276.575 136.444,270.818 130.542 C 268.856 128.530,267.149 126.985,267.025 127.108 C 266.901 127.232,266.800 127.003,266.800 126.600 C 266.800 126.197,266.689 125.977,266.554 126.113 C 266.419 126.248,265.440 125.468,264.380 124.379 C 263.320 123.291,262.287 122.400,262.085 122.400 C 261.884 122.400,261.154 121.860,260.463 121.200 C 259.772 120.540,259.026 120.000,258.804 120.000 C 258.582 120.000,258.400 119.820,258.400 119.600 C 258.400 119.380,258.040 119.200,257.600 119.200 C 257.160 119.200,256.800 119.020,256.800 118.800 C 256.800 118.549,254.200 118.400,249.800 118.400 C 245.400 118.400,242.800 118.549,242.800 118.800 C 242.800 119.020,242.440 119.200,242.000 119.200 C 241.560 119.200,241.200 119.380,241.200 119.600 C 241.200 119.820,240.912 120.000,240.560 120.000 C 240.209 120.000,239.417 120.540,238.800 121.200 C 238.183 121.860,237.477 122.400,237.229 122.400 C 236.981 122.400,235.969 123.210,234.979 124.200 C 233.989 125.190,233.004 126.000,232.789 126.000 C 232.575 126.000,232.400 126.300,232.400 126.667 C 232.400 127.033,232.283 127.217,232.141 127.074 C 231.998 126.931,231.537 127.216,231.117 127.707 C 229.257 129.881,227.502 131.600,227.143 131.600 C 226.928 131.600,226.864 131.780,227.000 132.000 C 227.475 132.769,224.928 132.405,224.200 131.600 C 223.802 131.160,223.234 130.800,222.938 130.800 C 222.642 130.800,222.400 130.620,222.400 130.400 C 222.400 130.180,222.040 130.000,221.600 130.000 C 221.160 130.000,220.800 129.820,220.800 129.600 C 220.800 129.380,220.260 129.200,219.600 129.200 C 218.940 129.200,218.400 129.020,218.400 128.800 C 218.400 128.539,212.000 128.400,200.000 128.400 C 188.000 128.400,181.600 128.539,181.600 128.800 C 181.600 129.020,181.060 129.200,180.400 129.200 C 179.740 129.200,179.200 129.380,179.200 129.600 C 179.200 129.820,178.840 130.000,178.400 130.000 C 177.960 130.000,177.600 130.180,177.600 130.400 C 177.600 130.620,177.358 130.800,177.062 130.800 C 176.766 130.800,176.198 131.160,175.800 131.600 C 174.603 132.922,173.645 132.551,170.766 129.649 C 169.264 128.135,167.938 126.995,167.818 127.115 C 167.698 127.235,167.600 127.033,167.600 126.667 C 167.600 126.300,167.425 126.000,167.211 126.000 C 166.996 126.000,166.011 125.190,165.021 124.200 C 164.031 123.210,163.019 122.400,162.771 122.400 C 162.523 122.400,161.799 121.841,161.160 121.157 C 160.460 120.408,159.761 120.006,159.400 120.145 C 159.070 120.271,158.799 120.156,158.797 119.887 C 158.790 118.760,156.638 118.400,149.897 118.400 C 145.503 118.400,143.239 118.539,143.400 118.800 M253.364 125.659 C 253.248 125.847,253.418 126.000,253.743 126.000 C 254.068 126.000,254.438 126.225,254.567 126.500 C 254.753 126.900,254.847 126.900,255.033 126.500 C 255.465 125.576,256.417 125.986,256.660 127.200 C 256.925 128.526,257.380 128.751,257.766 127.746 C 257.995 127.148,258.084 127.152,258.795 127.796 C 259.329 128.279,259.469 128.705,259.241 129.150 C 258.763 130.084,259.135 130.800,260.100 130.800 C 260.558 130.800,260.831 130.902,260.706 131.027 C 260.275 131.458,263.755 134.769,264.227 134.377 C 264.815 133.889,265.208 134.314,264.903 135.109 C 264.732 135.555,264.837 135.671,265.264 135.508 C 265.619 135.371,265.867 135.500,265.867 135.821 C 265.867 136.120,265.672 136.261,265.433 136.134 C 265.195 136.006,265.734 136.599,266.632 137.451 C 267.529 138.303,268.582 139.491,268.972 140.092 C 269.566 141.007,269.811 141.115,270.474 140.760 C 271.089 140.431,271.438 140.492,272.033 141.030 C 272.953 141.863,273.019 142.400,272.200 142.400 C 271.870 142.400,271.600 142.498,271.600 142.618 C 271.600 143.086,273.595 144.800,274.139 144.800 C 274.842 144.800,275.297 145.864,274.997 146.809 C 274.865 147.224,275.024 147.600,275.388 147.740 C 276.224 148.061,276.234 151.135,275.400 151.455 C 274.599 151.763,274.500 159.660,275.300 159.500 C 275.631 159.434,275.841 160.042,275.922 161.300 C 276.020 162.836,275.919 163.200,275.395 163.200 C 274.934 163.200,274.818 163.425,274.994 163.980 C 275.384 165.209,274.128 167.294,273.179 166.993 C 272.722 166.848,272.400 166.932,272.400 167.197 C 272.400 167.444,272.580 167.536,272.800 167.400 C 273.439 167.005,273.261 168.251,272.600 168.800 C 272.270 169.074,272.000 169.565,272.000 169.892 C 272.000 170.327,271.731 170.419,271.000 170.236 C 270.181 170.030,270.000 170.131,270.000 170.792 C 270.000 171.244,270.265 171.600,270.600 171.600 C 270.930 171.600,271.200 171.870,271.200 172.200 C 271.200 172.530,270.908 172.800,270.551 172.800 C 270.033 172.800,269.998 172.916,270.378 173.373 C 270.761 173.835,270.653 174.078,269.820 174.624 C 268.953 175.192,268.868 175.401,269.293 175.920 C 269.728 176.451,269.675 176.507,268.918 176.312 C 268.269 176.144,267.863 176.350,267.377 177.091 C 267.014 177.645,266.903 177.983,267.131 177.843 C 267.825 177.414,268.091 178.366,267.454 179.003 C 266.581 179.876,265.753 179.792,266.444 178.900 C 266.885 178.330,266.820 178.342,266.093 178.962 C 265.499 179.469,265.200 180.172,265.200 181.062 C 265.200 181.798,265.020 182.400,264.800 182.400 C 264.580 182.400,264.425 182.895,264.454 183.500 C 264.501 184.443,264.534 184.472,264.682 183.700 C 264.778 183.205,265.023 182.800,265.228 182.800 C 265.793 182.800,265.673 183.842,265.048 184.360 C 264.745 184.612,264.384 185.382,264.246 186.071 C 263.862 187.989,262.400 189.336,262.400 187.771 C 262.400 187.213,262.333 187.210,261.800 187.743 C 261.121 188.422,260.994 189.600,261.600 189.600 C 262.269 189.600,262.049 190.496,261.145 191.459 C 260.424 192.226,260.356 192.544,260.711 193.484 C 261.307 195.061,261.116 200.938,260.443 201.749 C 260.145 202.107,260.084 202.400,260.307 202.400 C 260.779 202.400,262.548 205.985,262.232 206.301 C 261.843 206.690,260.800 205.515,260.768 204.651 C 260.751 204.183,260.646 204.025,260.535 204.300 C 260.284 204.923,261.252 207.184,261.798 207.246 C 262.019 207.272,262.380 207.334,262.600 207.385 C 262.820 207.436,263.225 207.506,263.500 207.539 C 263.775 207.573,264.000 207.889,264.000 208.243 C 264.000 208.654,263.781 208.801,263.391 208.652 C 262.877 208.455,262.856 208.557,263.254 209.301 C 263.836 210.388,264.432 211.000,265.207 211.304 C 265.674 211.488,265.652 211.544,265.100 211.568 C 264.104 211.613,264.004 238.000,265.000 238.000 C 265.730 238.000,265.749 238.323,265.100 239.702 C 264.725 240.499,264.389 240.711,263.754 240.552 C 262.951 240.351,262.063 241.397,262.591 241.924 C 262.706 242.039,262.800 241.923,262.800 241.667 C 262.800 241.410,263.070 241.200,263.400 241.200 C 263.730 241.200,264.000 241.393,264.000 241.629 C 264.000 242.408,262.900 243.173,262.022 243.004 C 261.324 242.870,261.205 242.984,261.400 243.598 C 261.552 244.080,261.340 244.660,260.820 245.180 C 259.929 246.071,259.200 246.249,259.200 245.576 C 259.200 245.343,259.002 245.275,258.760 245.425 C 258.515 245.576,258.418 246.189,258.541 246.804 C 258.817 248.183,257.644 249.410,256.369 249.076 C 255.188 248.767,253.569 250.395,253.879 251.579 C 254.219 252.881,252.023 255.120,251.332 254.175 C 250.638 253.226,248.618 255.198,249.013 256.441 C 249.193 257.008,248.991 257.571,248.368 258.234 C 247.432 259.231,246.000 259.543,246.000 258.751 C 246.000 258.442,245.811 258.459,245.395 258.804 C 244.925 259.194,244.895 259.432,245.258 259.870 C 245.893 260.636,245.042 261.602,244.346 260.906 C 243.707 260.267,242.650 261.385,242.920 262.414 C 243.074 263.005,242.923 263.200,242.314 263.200 C 241.603 263.200,241.571 263.117,242.051 262.535 C 242.554 261.925,242.516 261.914,241.608 262.398 C 240.392 263.046,239.813 263.642,239.760 264.300 C 239.666 265.471,239.551 265.600,238.600 265.600 C 238.050 265.600,237.600 265.780,237.600 266.000 C 237.600 266.220,237.071 266.400,236.424 266.400 C 235.777 266.400,235.129 266.591,234.986 266.823 C 234.842 267.056,234.246 267.150,233.662 267.033 C 233.048 266.909,232.178 267.079,231.600 267.437 C 231.050 267.777,230.915 267.958,231.300 267.840 C 231.743 267.704,232.000 267.837,232.000 268.203 C 232.000 268.625,231.692 268.718,230.849 268.550 C 230.194 268.419,229.580 268.509,229.425 268.760 C 229.271 269.008,229.424 269.200,229.776 269.200 C 230.119 269.200,230.400 269.470,230.400 269.800 C 230.400 270.130,230.051 270.400,229.624 270.400 C 229.197 270.400,228.736 270.580,228.600 270.800 C 228.221 271.413,226.804 271.275,226.545 270.600 C 226.418 270.270,226.124 270.000,225.891 270.000 C 225.657 270.000,225.580 270.114,225.719 270.253 C 226.105 270.639,225.245 272.000,224.615 272.000 C 224.309 272.000,224.000 271.729,223.929 271.397 C 223.740 270.516,221.640 272.407,221.731 273.377 C 221.769 273.782,221.575 274.193,221.300 274.290 C 221.025 274.387,220.800 274.182,220.800 273.833 C 220.800 273.485,220.620 273.200,220.400 273.200 C 220.180 273.200,220.000 273.380,220.000 273.600 C 220.000 273.820,219.637 274.000,219.192 274.000 C 218.531 274.000,218.430 274.181,218.636 275.000 C 218.920 276.131,218.374 276.317,217.457 275.400 C 216.943 274.886,214.451 274.800,200.000 274.800 C 185.549 274.800,183.057 274.886,182.543 275.400 C 181.626 276.317,181.080 276.131,181.364 275.000 C 181.570 274.181,181.469 274.000,180.808 274.000 C 180.363 274.000,180.000 273.820,180.000 273.600 C 180.000 273.380,179.820 273.200,179.600 273.200 C 179.380 273.200,179.245 273.425,179.300 273.700 C 179.355 273.975,179.130 274.200,178.800 274.200 C 178.448 274.200,178.229 273.877,178.269 273.420 C 178.357 272.419,176.265 270.493,176.071 271.397 C 176.000 271.729,175.691 272.000,175.385 272.000 C 174.755 272.000,173.895 270.639,174.281 270.253 C 174.420 270.114,174.343 270.000,174.109 270.000 C 173.876 270.000,173.582 270.270,173.455 270.600 C 173.196 271.275,171.779 271.413,171.400 270.800 C 171.264 270.580,170.803 270.400,170.376 270.400 C 169.410 270.400,169.347 269.319,170.300 269.091 C 170.928 268.941,170.918 268.889,170.200 268.584 C 169.760 268.398,169.152 267.999,168.848 267.699 C 168.545 267.399,168.041 267.252,167.728 267.372 C 167.400 267.498,167.266 267.416,167.413 267.179 C 167.575 266.917,167.308 266.858,166.677 267.016 C 166.127 267.155,165.569 267.073,165.420 266.832 C 165.273 266.595,164.533 266.400,163.776 266.400 C 163.019 266.400,162.400 266.220,162.400 266.000 C 162.400 265.780,161.969 265.600,161.443 265.600 C 160.366 265.600,159.698 264.438,160.486 263.938 C 160.904 263.673,160.903 263.611,160.483 263.606 C 160.199 263.603,159.749 263.423,159.483 263.206 C 156.901 261.101,156.315 260.747,155.758 260.961 C 154.812 261.324,154.338 260.863,154.791 260.018 C 155.076 259.484,155.022 259.150,154.592 258.793 C 154.179 258.451,154.000 258.438,154.000 258.751 C 154.000 259.548,152.566 259.228,151.618 258.219 C 151.003 257.565,150.772 256.951,150.922 256.375 C 151.259 255.087,149.358 253.232,148.668 254.175 C 147.977 255.120,145.781 252.881,146.121 251.579 C 146.420 250.438,144.625 248.516,143.856 249.154 C 142.973 249.887,141.600 248.577,141.600 247.001 C 141.600 246.256,141.420 245.536,141.200 245.400 C 140.980 245.264,140.800 245.343,140.800 245.576 C 140.800 246.249,140.071 246.071,139.180 245.180 C 138.641 244.641,138.446 244.085,138.611 243.564 C 138.826 242.889,138.722 242.804,137.929 243.003 C 136.493 243.364,133.918 238.898,135.030 237.975 C 135.706 237.414,135.903 211.365,135.228 211.783 C 135.023 211.909,134.743 211.831,134.605 211.608 C 134.467 211.386,134.795 211.003,135.333 210.758 C 136.429 210.258,137.618 208.265,136.583 208.662 C 135.790 208.966,135.845 208.226,136.665 207.549 C 137.180 207.124,137.368 207.112,137.497 207.496 C 137.625 207.875,137.799 207.858,138.232 207.425 C 138.960 206.697,138.951 206.400,138.200 206.400 C 137.505 206.400,137.470 206.244,137.953 205.295 C 138.148 204.913,138.538 204.105,138.821 203.500 C 139.412 202.235,139.862 202.097,140.124 203.100 C 140.225 203.485,140.328 200.965,140.354 197.500 C 140.382 193.671,140.248 191.200,140.013 191.200 C 139.799 191.200,139.729 191.470,139.855 191.800 C 140.263 192.861,139.395 192.439,138.680 191.228 C 138.242 190.486,138.137 189.963,138.394 189.804 C 139.205 189.302,138.866 187.925,137.999 188.200 C 137.018 188.512,136.141 187.710,135.756 186.148 C 135.601 185.517,135.221 184.610,134.913 184.133 C 134.416 183.366,134.435 183.218,135.076 182.846 C 135.474 182.614,135.586 182.419,135.324 182.412 C 135.062 182.405,134.792 181.725,134.724 180.900 C 134.627 179.721,134.448 179.426,133.891 179.520 C 133.045 179.662,131.843 178.578,132.202 177.997 C 132.341 177.771,132.642 177.702,132.869 177.843 C 133.097 177.983,132.986 177.645,132.623 177.091 C 132.137 176.350,131.731 176.144,131.082 176.312 C 130.325 176.507,130.272 176.451,130.707 175.920 C 131.132 175.401,131.047 175.192,130.180 174.624 C 129.347 174.078,129.239 173.835,129.622 173.373 C 130.002 172.916,129.967 172.800,129.449 172.800 C 129.092 172.800,128.800 172.530,128.800 172.200 C 128.800 171.870,129.070 171.600,129.400 171.600 C 129.740 171.600,130.000 171.241,130.000 170.773 C 130.000 170.158,129.815 170.005,129.277 170.176 C 128.779 170.334,128.282 170.037,127.677 169.219 C 126.769 167.990,126.501 166.968,127.200 167.400 C 127.420 167.536,127.600 167.444,127.600 167.197 C 127.600 166.933,127.279 166.848,126.824 166.992 C 126.292 167.161,125.915 166.989,125.624 166.446 C 125.060 165.391,125.084 164.000,125.667 164.000 C 126.359 164.000,125.789 163.557,124.937 163.432 C 123.870 163.276,123.583 148.494,124.631 147.728 C 124.988 147.467,125.160 147.060,125.014 146.823 C 124.610 146.169,125.176 144.800,125.851 144.800 C 126.179 144.800,126.336 144.980,126.200 145.200 C 126.064 145.420,126.143 145.600,126.376 145.600 C 126.609 145.600,126.800 145.306,126.800 144.947 C 126.800 144.588,127.203 143.944,127.696 143.517 C 128.523 142.800,128.538 142.709,127.898 142.351 C 127.249 141.988,127.257 141.905,128.014 141.093 C 128.685 140.372,128.954 140.304,129.578 140.693 C 130.215 141.091,130.431 141.012,130.975 140.182 C 131.329 139.642,131.449 139.200,131.243 139.200 C 131.036 139.200,130.786 139.425,130.688 139.700 C 130.590 139.975,130.369 140.069,130.198 139.910 C 129.745 139.488,130.763 138.411,131.387 138.650 C 131.950 138.866,134.804 136.481,134.794 135.803 C 134.791 135.581,134.613 135.670,134.400 136.000 C 134.142 136.400,134.010 136.433,134.006 136.100 C 133.998 135.453,135.453 133.998,136.100 134.006 C 136.433 134.010,136.400 134.142,136.000 134.400 C 135.670 134.613,135.566 134.791,135.769 134.794 C 136.296 134.803,139.574 131.307,139.297 131.031 C 139.170 130.904,139.421 130.800,139.853 130.800 C 141.086 130.800,141.667 130.009,140.955 129.298 C 140.431 128.774,140.444 128.614,141.067 127.926 C 141.697 127.230,141.821 127.213,142.230 127.773 C 142.879 128.661,143.067 128.563,143.340 127.200 C 143.583 125.986,144.535 125.576,144.967 126.500 C 145.153 126.900,145.247 126.900,145.433 126.500 C 145.562 126.225,145.911 126.000,146.210 126.000 C 146.508 126.000,146.881 125.792,147.038 125.538 C 147.214 125.254,147.148 125.185,146.866 125.359 C 146.571 125.542,146.493 125.422,146.647 125.021 C 146.909 124.338,148.000 124.160,148.000 124.800 C 148.000 125.047,150.067 125.200,153.400 125.200 C 156.617 125.200,158.800 125.043,158.800 124.813 C 158.800 124.074,160.063 124.914,160.439 125.903 C 160.758 126.741,161.002 126.860,161.993 126.661 C 163.236 126.413,164.068 127.064,163.196 127.603 C 162.828 127.830,163.096 128.323,164.171 129.398 C 165.552 130.779,165.689 130.831,166.178 130.163 C 166.881 129.200,168.197 130.348,167.806 131.582 C 167.635 132.121,167.814 132.527,168.378 132.879 C 168.830 133.162,169.218 133.664,169.240 133.996 C 169.262 134.328,169.399 134.176,169.544 133.658 C 169.808 132.717,169.809 132.717,171.366 134.143 C 172.637 135.307,172.835 135.676,172.442 136.149 C 171.863 136.847,172.431 137.316,173.404 136.943 C 173.776 136.800,174.198 136.865,174.340 137.086 C 174.700 137.645,178.400 138.160,178.400 137.651 C 178.400 137.433,178.760 137.140,179.200 137.000 C 179.640 136.860,180.000 136.574,180.000 136.364 C 180.000 136.154,179.558 136.271,179.018 136.625 C 178.039 137.266,177.200 137.131,177.200 136.333 C 177.200 136.085,177.609 136.016,178.200 136.164 C 178.960 136.355,179.200 136.259,179.200 135.763 C 179.200 135.234,179.465 135.161,180.606 135.375 C 181.651 135.571,181.986 135.505,181.906 135.119 C 181.820 134.700,185.291 134.600,200.000 134.600 C 213.563 134.600,218.178 134.718,218.112 135.063 C 218.023 135.533,218.970 135.564,219.428 135.106 C 219.834 134.699,220.800 135.236,220.800 135.870 C 220.800 136.280,220.533 136.382,219.900 136.212 C 219.256 136.039,219.341 136.162,220.200 136.644 C 220.860 137.014,221.501 137.471,221.625 137.661 C 221.924 138.118,225.600 137.601,225.600 137.102 C 225.600 136.888,226.029 136.821,226.554 136.953 C 227.190 137.112,227.691 136.968,228.054 136.519 C 228.369 136.131,228.400 135.966,228.128 136.130 C 227.868 136.286,227.539 136.225,227.397 135.995 C 227.022 135.389,229.525 133.200,230.593 133.200 C 231.707 133.200,232.499 132.325,232.168 131.461 C 231.750 130.370,233.163 129.261,233.822 130.163 C 234.519 131.115,237.279 128.588,236.943 127.305 C 236.768 126.635,236.910 126.555,237.995 126.714 C 239.020 126.864,239.290 126.743,239.471 126.049 C 239.593 125.582,239.897 125.191,240.147 125.181 C 240.396 125.170,243.143 125.178,246.250 125.198 C 251.335 125.232,251.929 125.164,252.179 124.518 C 252.443 123.835,252.485 123.837,253.016 124.559 C 253.323 124.976,253.480 125.471,253.364 125.659 M222.800 136.376 C 222.800 136.917,222.071 137.291,221.593 136.996 C 221.370 136.858,221.291 136.577,221.417 136.372 C 221.717 135.887,222.800 135.890,222.800 136.376 M270.025 139.735 C 269.565 140.195,268.800 139.719,268.800 138.973 C 268.800 138.496,268.940 138.481,269.590 138.887 C 270.050 139.174,270.232 139.528,270.025 139.735 M173.200 160.750 C 173.200 160.942,172.690 161.202,172.067 161.327 C 171.445 161.451,170.346 162.104,169.625 162.777 C 168.905 163.449,168.154 164.000,167.958 164.000 C 167.761 164.000,167.596 164.315,167.591 164.700 C 167.586 165.085,167.230 165.850,166.800 166.400 C 165.931 167.510,165.582 175.200,166.400 175.200 C 166.620 175.200,166.800 175.560,166.800 176.000 C 166.800 176.440,166.980 176.800,167.200 176.800 C 167.420 176.800,167.600 177.091,167.600 177.446 C 167.600 178.382,170.396 180.800,171.478 180.800 C 171.985 180.800,172.400 180.980,172.400 181.200 C 172.400 181.441,174.067 181.600,176.600 181.600 C 179.133 181.600,180.800 181.441,180.800 181.200 C 180.800 180.980,181.160 180.800,181.600 180.800 C 182.040 180.800,182.400 180.620,182.400 180.400 C 182.400 180.180,182.683 180.000,183.029 180.000 C 183.800 180.000,184.800 179.049,184.800 178.317 C 184.800 178.020,185.160 177.517,185.600 177.200 C 186.040 176.883,186.400 176.224,186.400 175.735 C 186.400 175.247,186.580 174.736,186.800 174.600 C 187.020 174.464,187.200 172.934,187.200 171.200 C 187.200 169.466,187.020 167.936,186.800 167.800 C 186.580 167.664,186.400 167.203,186.400 166.776 C 186.400 166.349,186.220 166.000,186.000 166.000 C 185.780 166.000,185.600 165.724,185.600 165.387 C 185.600 165.049,184.976 164.149,184.213 163.387 C 183.451 162.624,182.551 162.000,182.213 162.000 C 181.876 162.000,181.600 161.820,181.600 161.600 C 181.600 161.380,181.251 161.200,180.824 161.200 C 180.397 161.200,179.936 161.020,179.800 160.800 C 179.497 160.309,173.200 160.261,173.200 160.750 M219.400 161.200 C 218.740 161.608,217.969 161.955,217.687 161.971 C 216.947 162.013,214.400 164.661,214.400 165.387 C 214.400 165.724,214.220 166.000,214.000 166.000 C 213.780 166.000,213.600 166.349,213.600 166.776 C 213.600 167.203,213.420 167.664,213.200 167.800 C 212.980 167.936,212.800 169.466,212.800 171.200 C 212.800 172.934,212.980 174.464,213.200 174.600 C 213.420 174.736,213.600 175.247,213.600 175.735 C 213.600 176.224,213.960 176.883,214.400 177.200 C 214.840 177.517,215.200 178.020,215.200 178.317 C 215.200 179.049,216.200 180.000,216.971 180.000 C 217.317 180.000,217.600 180.180,217.600 180.400 C 217.600 180.620,217.960 180.800,218.400 180.800 C 218.840 180.800,219.200 180.980,219.200 181.200 C 219.200 181.441,220.867 181.600,223.400 181.600 C 225.933 181.600,227.600 181.441,227.600 181.200 C 227.600 180.980,228.015 180.800,228.522 180.800 C 229.604 180.800,232.400 178.382,232.400 177.446 C 232.400 177.091,232.580 176.800,232.800 176.800 C 233.020 176.800,233.200 176.440,233.200 176.000 C 233.200 175.560,233.380 175.200,233.600 175.200 C 234.443 175.200,234.086 167.259,233.200 166.308 C 232.760 165.836,232.400 165.123,232.400 164.725 C 232.400 164.326,232.239 164.000,232.042 164.000 C 231.846 164.000,231.095 163.449,230.375 162.777 C 229.654 162.104,228.555 161.451,227.933 161.327 C 227.310 161.202,226.800 160.942,226.800 160.750 C 226.800 160.042,220.671 160.415,219.400 161.200 M177.600 164.000 C 177.600 164.220,178.140 164.400,178.800 164.400 C 179.460 164.400,180.000 164.580,180.000 164.800 C 180.000 165.020,180.345 165.200,180.766 165.200 C 181.233 165.200,181.741 165.669,182.064 166.400 C 182.356 167.060,182.731 167.600,182.898 167.600 C 183.064 167.600,183.200 168.039,183.200 168.576 C 183.200 169.113,183.380 169.664,183.600 169.800 C 183.820 169.936,184.000 170.476,184.000 171.000 C 184.000 171.524,183.820 172.064,183.600 172.200 C 183.380 172.336,183.200 173.033,183.200 173.748 C 183.200 175.257,182.162 176.483,179.685 177.900 C 178.358 178.659,174.183 178.536,172.889 177.700 C 171.524 176.818,170.029 175.155,170.013 174.500 C 170.006 174.225,169.820 174.000,169.600 174.000 C 169.371 174.000,169.200 172.800,169.200 171.200 C 169.200 169.660,169.350 168.400,169.532 168.400 C 169.715 168.400,170.119 167.905,170.430 167.300 C 171.275 165.655,172.862 164.401,174.100 164.400 C 174.705 164.400,175.200 164.220,175.200 164.000 C 175.200 163.780,175.740 163.600,176.400 163.600 C 177.060 163.600,177.600 163.780,177.600 164.000 M224.800 164.000 C 224.800 164.220,225.295 164.400,225.900 164.400 C 227.138 164.401,228.725 165.655,229.570 167.300 C 229.881 167.905,230.285 168.400,230.468 168.400 C 230.650 168.400,230.800 169.660,230.800 171.200 C 230.800 172.800,230.629 174.000,230.400 174.000 C 230.180 174.000,229.994 174.225,229.987 174.500 C 229.971 175.155,228.476 176.818,227.111 177.700 C 225.817 178.536,221.642 178.659,220.315 177.900 C 217.953 176.549,216.800 175.253,216.800 173.948 C 216.800 173.343,216.620 172.736,216.400 172.600 C 216.180 172.464,216.000 171.834,216.000 171.200 C 216.000 170.566,216.180 169.936,216.400 169.800 C 216.620 169.664,216.800 169.113,216.800 168.576 C 216.800 168.039,216.936 167.600,217.102 167.600 C 217.269 167.600,217.644 167.060,217.936 166.400 C 218.259 165.669,218.767 165.200,219.234 165.200 C 219.655 165.200,220.000 165.020,220.000 164.800 C 220.000 164.580,220.540 164.400,221.200 164.400 C 221.860 164.400,222.400 164.220,222.400 164.000 C 222.400 163.780,222.940 163.600,223.600 163.600 C 224.260 163.600,224.800 163.780,224.800 164.000 M260.432 190.267 C 260.414 190.743,260.175 191.224,259.900 191.335 C 259.508 191.493,259.511 191.544,259.913 191.568 C 260.520 191.606,260.961 190.640,260.669 189.913 C 260.556 189.631,260.449 189.790,260.432 190.267 M140.000 197.624 C 140.000 200.471,139.857 201.959,139.600 201.800 C 139.375 201.661,139.200 199.729,139.200 197.376 C 139.200 194.859,139.359 193.200,139.600 193.200 C 139.843 193.200,140.000 194.941,140.000 197.624 M197.200 197.200 C 196.693 197.640,195.985 198.000,195.627 198.000 C 195.269 198.000,194.717 198.360,194.400 198.800 C 194.083 199.240,193.633 199.600,193.400 199.600 C 193.167 199.600,192.717 199.960,192.400 200.400 C 192.029 200.915,191.365 201.200,190.535 201.200 C 189.827 201.200,189.136 201.380,189.000 201.600 C 188.864 201.820,188.263 202.000,187.665 202.000 C 187.035 202.000,186.333 202.337,186.000 202.800 C 185.683 203.240,185.105 203.600,184.715 203.600 C 184.326 203.600,183.782 203.960,183.507 204.400 C 183.232 204.840,182.757 205.200,182.451 205.200 C 182.144 205.200,181.601 205.515,181.243 205.900 C 180.078 207.151,178.649 207.724,176.859 207.656 C 175.537 207.606,174.928 207.791,174.399 208.401 C 173.974 208.891,173.440 209.113,173.048 208.963 C 172.620 208.799,172.400 208.928,172.400 209.345 C 172.400 209.691,172.175 209.890,171.900 209.787 C 171.625 209.683,170.860 210.094,170.200 210.699 C 169.540 211.305,168.505 212.055,167.900 212.368 C 167.295 212.680,166.800 213.182,166.800 213.484 C 166.800 213.786,166.440 214.420,166.000 214.892 C 165.102 215.856,164.728 230.000,165.600 230.000 C 165.820 230.000,166.000 230.320,166.000 230.712 C 166.000 231.103,166.360 231.683,166.800 232.000 C 167.240 232.317,167.600 232.789,167.600 233.048 C 167.600 233.626,171.440 237.600,171.998 237.600 C 172.219 237.600,172.400 237.870,172.400 238.200 C 172.400 238.533,172.756 238.800,173.200 238.800 C 173.673 238.800,174.000 239.067,174.000 239.453 C 174.000 240.122,175.435 241.600,176.085 241.600 C 176.284 241.600,176.336 241.780,176.200 242.000 C 176.064 242.220,176.323 242.400,176.776 242.400 C 177.333 242.400,177.600 242.659,177.600 243.200 C 177.600 243.733,177.867 244.000,178.400 244.000 C 178.840 244.000,179.200 244.152,179.200 244.339 C 179.200 244.871,180.644 246.400,181.147 246.400 C 181.396 246.400,181.600 246.581,181.600 246.803 C 181.600 247.027,182.435 247.175,183.477 247.135 C 184.613 247.093,185.416 247.249,185.511 247.532 C 185.596 247.789,185.913 248.000,186.215 248.000 C 188.312 248.000,188.800 249.666,188.800 256.818 L 188.800 263.600 200.000 263.600 L 211.200 263.600 211.200 256.818 C 211.200 249.639,211.687 248.000,213.818 248.000 C 214.138 248.000,214.400 247.820,214.400 247.600 C 214.400 247.380,215.300 247.200,216.400 247.200 C 217.500 247.200,218.400 247.020,218.400 246.800 C 218.400 246.580,218.604 246.400,218.853 246.400 C 219.356 246.400,220.800 244.871,220.800 244.339 C 220.800 244.152,221.160 244.000,221.600 244.000 C 222.133 244.000,222.400 243.733,222.400 243.200 C 222.400 242.760,222.664 242.400,222.986 242.400 C 223.768 242.400,226.000 240.188,226.000 239.413 C 226.000 239.067,226.348 238.800,226.800 238.800 C 227.244 238.800,227.600 238.533,227.600 238.200 C 227.600 237.870,227.781 237.600,228.002 237.600 C 228.560 237.600,232.400 233.626,232.400 233.048 C 232.400 232.789,232.760 232.317,233.200 232.000 C 233.640 231.683,234.000 231.103,234.000 230.712 C 234.000 230.320,234.180 230.000,234.400 230.000 C 235.272 230.000,234.898 215.856,234.000 214.892 C 233.560 214.420,233.200 213.786,233.200 213.484 C 233.200 213.182,232.705 212.680,232.100 212.368 C 231.495 212.055,230.460 211.305,229.800 210.699 C 229.140 210.094,228.375 209.683,228.100 209.787 C 227.825 209.890,227.600 209.698,227.600 209.360 C 227.600 208.953,227.360 208.822,226.888 208.972 C 226.443 209.113,225.959 208.898,225.599 208.399 C 225.161 207.792,224.564 207.600,223.106 207.600 C 221.129 207.600,219.887 207.115,218.757 205.900 C 218.399 205.515,217.856 205.200,217.549 205.200 C 217.243 205.200,216.768 204.840,216.493 204.400 C 216.218 203.960,215.674 203.600,215.285 203.600 C 214.895 203.600,214.317 203.240,214.000 202.800 C 213.667 202.337,212.965 202.000,212.335 202.000 C 211.737 202.000,211.136 201.820,211.000 201.600 C 210.864 201.380,210.223 201.200,209.576 201.200 C 208.929 201.200,208.400 201.020,208.400 200.800 C 208.400 200.580,208.130 200.400,207.800 200.400 C 207.470 200.400,207.200 200.220,207.200 200.000 C 207.200 199.780,206.970 199.600,206.688 199.600 C 206.407 199.600,205.917 199.240,205.600 198.800 C 205.283 198.360,204.731 198.000,204.373 198.000 C 204.015 198.000,203.307 197.640,202.800 197.200 C 202.160 196.645,201.303 196.400,200.000 196.400 C 198.697 196.400,197.840 196.645,197.200 197.200 M201.200 203.200 C 201.200 203.420,201.560 203.600,202.000 203.600 C 202.440 203.600,202.800 203.750,202.800 203.932 C 202.800 204.115,203.295 204.520,203.900 204.832 C 204.505 205.145,205.238 205.625,205.528 205.899 C 205.818 206.174,206.538 206.506,207.128 206.637 C 207.718 206.769,208.920 207.193,209.800 207.580 C 210.680 207.968,211.895 208.404,212.500 208.550 C 213.105 208.696,213.600 208.992,213.600 209.208 C 213.600 209.423,213.920 209.600,214.312 209.600 C 214.703 209.600,215.283 209.960,215.600 210.400 C 215.917 210.840,216.497 211.200,216.888 211.200 C 217.280 211.200,217.600 211.380,217.600 211.600 C 217.600 211.820,218.500 212.000,219.600 212.000 C 220.700 212.000,221.600 212.180,221.600 212.400 C 221.600 212.620,221.958 212.800,222.397 212.800 C 222.835 212.800,223.418 213.160,223.693 213.600 C 223.968 214.040,224.612 214.400,225.125 214.400 C 225.638 214.400,226.327 214.670,226.657 215.000 C 226.987 215.330,227.135 215.600,226.986 215.600 C 226.837 215.600,227.229 216.100,227.858 216.711 C 228.486 217.322,229.225 218.219,229.500 218.705 C 230.108 219.781,230.196 227.200,229.600 227.200 C 229.380 227.200,229.200 227.787,229.200 228.505 C 229.200 229.430,228.909 230.029,228.200 230.561 C 227.650 230.974,227.200 231.441,227.200 231.598 C 227.200 232.155,223.579 235.600,222.994 235.600 C 222.667 235.600,222.400 235.874,222.400 236.209 C 222.400 236.543,221.414 237.803,220.209 239.009 C 219.003 240.214,217.743 241.200,217.409 241.200 C 217.074 241.200,216.800 241.359,216.800 241.553 C 216.800 241.748,216.440 242.001,216.000 242.116 C 215.560 242.231,215.200 242.600,215.200 242.935 C 215.200 243.420,214.752 243.525,213.031 243.445 C 211.103 243.355,210.743 243.470,209.797 244.472 C 209.211 245.092,208.555 245.600,208.338 245.600 C 207.040 245.600,206.800 246.751,206.800 252.971 L 206.800 259.200 200.000 259.200 L 193.200 259.200 193.200 252.971 C 193.200 246.751,192.960 245.600,191.662 245.600 C 191.445 245.600,190.789 245.092,190.203 244.472 C 189.257 243.470,188.897 243.355,186.969 243.445 C 185.248 243.525,184.800 243.420,184.800 242.935 C 184.800 242.600,184.440 242.231,184.000 242.116 C 183.560 242.001,183.200 241.748,183.200 241.553 C 183.200 241.359,182.926 241.200,182.591 241.200 C 181.799 241.200,177.600 237.001,177.600 236.209 C 177.600 235.874,177.280 235.600,176.888 235.600 C 176.497 235.600,175.912 235.219,175.588 234.754 C 175.265 234.289,174.055 232.931,172.900 231.736 C 171.330 230.113,170.800 229.266,170.800 228.382 C 170.800 227.732,170.620 227.200,170.400 227.200 C 169.804 227.200,169.891 219.778,170.500 218.722 C 171.377 217.200,174.353 214.400,175.093 214.400 C 175.486 214.400,176.032 214.040,176.307 213.600 C 176.582 213.160,177.165 212.800,177.603 212.800 C 178.042 212.800,178.400 212.620,178.400 212.400 C 178.400 212.180,179.300 212.000,180.400 212.000 C 181.500 212.000,182.400 211.820,182.400 211.600 C 182.400 211.380,182.720 211.200,183.112 211.200 C 183.503 211.200,184.083 210.840,184.400 210.400 C 184.717 209.960,185.297 209.600,185.688 209.600 C 186.080 209.600,186.400 209.423,186.400 209.208 C 186.400 208.992,186.895 208.696,187.500 208.550 C 188.105 208.404,189.320 207.968,190.200 207.580 C 191.080 207.193,192.282 206.769,192.872 206.637 C 193.462 206.506,194.182 206.174,194.472 205.899 C 194.762 205.625,195.495 205.145,196.100 204.832 C 196.705 204.520,197.200 204.115,197.200 203.932 C 197.200 203.750,197.560 203.600,198.000 203.600 C 198.440 203.600,198.800 203.420,198.800 203.200 C 198.800 202.980,199.340 202.800,200.000 202.800 C 200.660 202.800,201.200 202.980,201.200 203.200 M136.000 240.800 C 136.000 241.020,136.270 241.200,136.600 241.200 C 136.930 241.200,137.200 241.410,137.200 241.667 C 137.200 241.923,137.294 242.039,137.409 241.924 C 137.525 241.809,137.505 241.419,137.367 241.057 C 137.094 240.348,136.000 240.142,136.000 240.800 " stroke="none" fill="#247c3c" fill-rule="evenodd"></path><path id="path1" d="M141.192 128.210 C 140.501 129.043,141.011 129.447,141.781 128.676 C 142.121 128.336,142.400 127.954,142.400 127.829 C 142.400 127.384,141.691 127.608,141.192 128.210 M257.600 127.829 C 257.600 128.125,258.675 129.200,258.971 129.200 C 259.489 129.200,259.152 128.067,258.567 127.843 C 257.781 127.541,257.600 127.538,257.600 127.829 M166.236 129.942 C 166.120 130.129,166.511 130.504,167.105 130.775 C 168.181 131.265,168.182 131.264,167.430 130.433 C 166.577 129.490,166.528 129.470,166.236 129.942 M232.571 130.444 C 231.801 131.305,231.801 131.306,232.800 131.003 C 234.099 130.610,234.229 130.469,233.744 129.984 C 233.474 129.714,233.088 129.865,232.571 130.444 M169.600 133.600 C 169.600 133.820,169.839 134.000,170.130 134.000 C 170.868 134.000,172.474 135.786,172.104 136.194 C 171.937 136.378,172.034 136.393,172.319 136.229 C 172.745 135.983,172.745 135.809,172.320 135.264 C 170.989 133.560,169.600 132.710,169.600 133.600 M228.618 134.218 C 227.346 135.490,227.266 136.053,228.526 134.870 C 229.035 134.391,229.654 134.000,229.902 134.000 C 230.150 134.000,230.464 133.820,230.600 133.600 C 231.114 132.769,229.593 133.243,228.618 134.218 M173.805 137.462 C 174.487 138.144,176.960 138.583,176.571 137.953 C 176.451 137.759,175.924 137.600,175.400 137.600 C 174.876 137.600,174.336 137.420,174.200 137.200 C 174.064 136.980,173.771 136.800,173.548 136.800 C 173.325 136.800,173.441 137.098,173.805 137.462 M225.800 137.200 C 225.664 137.420,225.124 137.600,224.600 137.600 C 224.076 137.600,223.552 137.754,223.435 137.943 C 223.206 138.314,226.331 138.203,226.706 137.827 C 226.831 137.702,226.678 137.597,226.367 137.594 C 225.900 137.589,225.906 137.519,226.400 137.200 C 226.761 136.967,226.810 136.810,226.524 136.806 C 226.262 136.803,225.936 136.980,225.800 137.200 M128.014 141.174 C 127.508 142.120,127.494 142.400,127.953 142.400 C 128.148 142.400,128.393 141.950,128.498 141.400 C 128.727 140.201,128.573 140.129,128.014 141.174 M271.606 141.500 C 271.603 141.995,271.780 142.400,272.000 142.400 C 272.501 142.400,272.501 141.976,272.000 141.200 C 271.686 140.715,271.611 140.772,271.606 141.500 M125.200 145.800 C 125.200 146.130,125.380 146.400,125.600 146.400 C 125.820 146.400,126.000 146.130,126.000 145.800 C 126.000 145.470,125.820 145.200,125.600 145.200 C 125.380 145.200,125.200 145.470,125.200 145.800 M125.200 164.800 C 125.200 165.547,125.307 165.653,125.680 165.280 C 126.053 164.907,126.053 164.693,125.680 164.320 C 125.307 163.947,125.200 164.053,125.200 164.800 M274.016 165.275 C 273.105 166.253,273.012 166.637,273.600 167.000 C 273.820 167.136,274.000 166.877,274.000 166.424 C 274.000 165.971,274.161 165.600,274.357 165.600 C 274.554 165.600,274.818 165.330,274.945 165.000 C 275.266 164.163,274.970 164.251,274.016 165.275 M126.000 166.400 C 126.000 167.147,126.107 167.253,126.480 166.880 C 126.853 166.507,126.853 166.293,126.480 165.920 C 126.107 165.547,126.000 165.653,126.000 166.400 M129.067 171.867 C 128.581 172.353,128.790 172.800,129.500 172.794 C 130.048 172.789,130.081 172.713,129.655 172.442 C 129.194 172.151,129.194 172.063,129.655 171.880 C 129.955 171.761,130.005 171.649,129.767 171.632 C 129.528 171.614,129.213 171.720,129.067 171.867 M270.345 171.921 C 270.806 172.244,270.806 172.337,270.345 172.520 C 269.978 172.666,270.040 172.747,270.533 172.768 C 271.372 172.805,271.243 171.929,270.375 171.695 C 269.900 171.566,269.895 171.605,270.345 171.921 M270.000 173.557 C 270.000 173.827,269.820 173.936,269.600 173.800 C 269.380 173.664,269.200 173.733,269.200 173.953 C 269.200 174.173,269.361 174.452,269.558 174.574 C 269.949 174.815,270.550 173.617,270.209 173.276 C 270.094 173.161,270.000 173.287,270.000 173.557 M132.400 178.229 C 132.400 178.651,133.502 179.564,133.733 179.333 C 133.859 179.208,133.713 178.856,133.410 178.552 C 132.833 177.976,132.400 177.837,132.400 178.229 M136.000 186.491 C 136.000 187.220,136.709 187.824,137.103 187.431 C 137.240 187.293,137.048 186.877,136.676 186.505 C 136.053 185.881,136.000 185.880,136.000 186.491 M138.835 190.376 C 138.359 190.672,138.378 190.835,138.954 191.411 C 139.774 192.231,139.949 192.102,139.635 190.912 C 139.465 190.270,139.244 190.121,138.835 190.376 M260.643 191.033 C 260.267 192.011,260.349 192.108,261.000 191.457 C 261.680 190.777,261.767 190.400,261.243 190.400 C 261.046 190.400,260.776 190.685,260.643 191.033 M139.467 193.467 C 139.320 193.613,139.218 194.288,139.241 194.967 L 139.282 196.200 139.610 194.803 C 139.953 193.347,139.917 193.016,139.467 193.467 M260.263 194.480 C 260.600 196.249,260.800 196.401,260.800 194.890 C 260.800 194.207,260.623 193.538,260.406 193.404 C 260.160 193.252,260.106 193.655,260.263 194.480 M260.100 196.688 C 259.476 196.911,259.435 198.400,260.053 198.400 C 260.350 198.400,260.432 198.949,260.291 200.000 C 260.173 200.880,260.239 201.600,260.438 201.600 C 260.637 201.600,260.800 200.700,260.800 199.600 C 260.800 198.270,260.633 197.598,260.300 197.594 C 259.961 197.590,259.990 197.468,260.388 197.216 C 261.058 196.792,260.854 196.419,260.100 196.688 M139.467 197.867 C 139.320 198.013,139.200 198.943,139.200 199.933 C 139.200 202.229,139.722 201.776,139.823 199.393 C 139.903 197.502,139.889 197.444,139.467 197.867 M138.900 203.888 C 138.625 203.986,138.400 204.360,138.400 204.719 C 138.400 205.313,138.461 205.311,139.076 204.695 C 139.799 203.972,139.717 203.596,138.900 203.888 M137.600 206.000 C 137.600 206.220,137.870 206.400,138.200 206.400 C 138.530 206.400,138.800 206.220,138.800 206.000 C 138.800 205.780,138.530 205.600,138.200 205.600 C 137.870 205.600,137.600 205.780,137.600 206.000 M262.614 207.577 C 262.484 207.788,262.743 208.155,263.189 208.394 C 264.133 208.900,264.250 208.592,263.426 207.768 C 263.091 207.434,262.752 207.354,262.614 207.577 M264.587 239.000 C 264.484 239.330,264.316 239.870,264.213 240.200 C 264.109 240.530,264.179 240.800,264.367 240.800 C 264.555 240.800,264.788 240.260,264.885 239.600 C 265.072 238.331,264.903 237.991,264.587 239.000 M135.246 239.700 C 135.200 240.789,135.723 241.172,136.200 240.400 C 136.336 240.180,136.270 240.000,136.053 240.000 C 135.836 240.000,135.576 239.685,135.476 239.300 C 135.363 238.869,135.275 239.023,135.246 239.700 M136.000 241.395 C 136.000 241.756,137.374 243.200,137.717 243.200 C 137.904 243.200,137.773 242.915,137.425 242.568 C 137.077 242.220,136.895 241.770,137.020 241.568 C 137.145 241.365,136.967 241.200,136.624 241.200 C 136.281 241.200,136.000 241.288,136.000 241.395 M262.986 241.519 C 263.088 241.622,262.976 242.087,262.737 242.553 C 262.312 243.379,262.322 243.378,263.151 242.517 C 264.160 241.467,264.188 241.333,263.400 241.333 C 263.070 241.333,262.884 241.417,262.986 241.519 M142.202 248.402 C 142.602 248.844,143.011 249.122,143.112 249.021 C 143.328 248.805,142.188 247.600,141.767 247.600 C 141.607 247.600,141.803 247.961,142.202 248.402 M257.260 248.242 C 256.962 248.578,256.799 248.932,256.895 249.029 C 256.992 249.126,257.398 248.844,257.798 248.402 C 258.197 247.961,258.361 247.607,258.162 247.615 C 257.963 247.624,257.557 247.905,257.260 248.242 M147.188 253.388 C 147.699 253.931,148.276 254.277,148.472 254.156 C 148.667 254.035,148.387 253.591,147.850 253.168 C 146.473 252.085,146.085 252.214,147.188 253.388 M252.800 252.739 C 252.800 252.925,252.406 253.254,251.924 253.468 C 251.421 253.693,251.226 253.969,251.466 254.117 C 251.696 254.259,252.301 253.931,252.812 253.388 C 253.322 252.844,253.528 252.400,253.270 252.400 C 253.011 252.400,252.800 252.552,252.800 252.739 M151.246 256.630 C 151.221 257.087,151.617 257.852,152.126 258.330 C 153.102 259.247,154.000 259.472,154.000 258.800 C 154.000 258.580,153.717 258.400,153.371 258.400 C 152.587 258.400,151.748 257.585,151.490 256.572 C 151.307 255.855,151.290 255.859,151.246 256.630 M248.446 256.529 C 248.388 257.441,247.457 258.400,246.629 258.400 C 246.283 258.400,246.000 258.580,246.000 258.800 C 246.000 259.519,247.041 259.220,247.966 258.236 C 248.487 257.681,248.792 256.959,248.683 256.536 C 248.501 255.832,248.491 255.831,248.446 256.529 M154.832 260.100 C 154.811 260.550,155.094 260.800,155.624 260.800 C 156.080 260.800,156.335 260.619,156.196 260.393 C 156.058 260.170,155.793 260.081,155.607 260.196 C 155.421 260.311,155.177 260.179,155.066 259.902 C 154.944 259.599,154.851 259.678,154.832 260.100 M239.386 264.621 C 239.148 264.979,238.254 265.228,237.062 265.268 C 235.997 265.303,234.878 265.579,234.577 265.881 C 234.275 266.182,233.917 266.407,233.781 266.381 C 233.645 266.355,233.413 266.459,233.267 266.613 C 233.120 266.767,233.630 266.754,234.400 266.583 C 235.170 266.412,236.111 266.244,236.492 266.211 C 236.872 266.177,237.307 266.026,237.459 265.875 C 237.610 265.724,238.134 265.600,238.624 265.600 C 239.114 265.600,239.628 265.304,239.767 264.943 C 240.099 264.077,239.873 263.886,239.386 264.621 M162.196 265.674 C 162.634 265.934,163.354 266.176,163.796 266.211 C 164.238 266.246,165.140 266.416,165.800 266.589 C 166.724 266.831,166.897 266.793,166.552 266.424 C 166.306 266.160,165.766 265.881,165.352 265.803 C 164.939 265.725,164.600 265.635,164.600 265.602 C 164.600 265.570,163.880 265.466,163.000 265.372 C 161.626 265.224,161.513 265.267,162.196 265.674 M169.867 269.467 C 169.180 270.154,169.447 270.297,172.477 270.872 C 172.849 270.942,173.209 270.820,173.277 270.600 C 173.344 270.380,172.815 270.144,172.100 270.075 C 171.385 270.006,170.800 269.781,170.800 269.575 C 170.800 269.141,170.256 269.078,169.867 269.467 M229.600 269.576 C 229.600 269.809,228.981 270.000,228.224 270.000 C 227.467 270.000,226.748 270.161,226.626 270.358 C 226.299 270.887,227.664 271.296,228.147 270.813 C 228.374 270.586,228.974 270.400,229.480 270.400 C 230.423 270.400,230.714 269.841,230.000 269.400 C 229.780 269.264,229.600 269.343,229.600 269.576 M181.200 275.200 C 181.200 275.420,181.470 275.600,181.800 275.600 C 182.130 275.600,182.400 275.420,182.400 275.200 C 182.400 274.980,182.130 274.800,181.800 274.800 C 181.470 274.800,181.200 274.980,181.200 275.200 M217.600 275.200 C 217.600 275.420,217.870 275.600,218.200 275.600 C 218.530 275.600,218.800 275.420,218.800 275.200 C 218.800 274.980,218.530 274.800,218.200 274.800 C 217.870 274.800,217.600 274.980,217.600 275.200 " stroke="none" fill="#248448" fill-rule="evenodd"></path><path id="path2" d="M258.077 129.174 C 258.343 129.600,258.705 129.858,258.883 129.749 C 259.061 129.639,258.948 129.290,258.632 128.974 C 257.812 128.155,257.509 128.265,258.077 129.174 M166.000 130.786 C 166.000 130.998,166.360 131.365,166.800 131.600 C 167.426 131.935,167.600 131.904,167.600 131.457 C 167.600 131.143,167.315 130.776,166.967 130.643 C 166.118 130.317,166.000 130.334,166.000 130.786 M232.584 131.227 C 232.148 131.932,232.607 132.030,233.429 131.409 C 234.106 130.897,234.117 130.824,233.524 130.813 C 233.152 130.806,232.729 130.992,232.584 131.227 M170.097 134.900 C 170.424 135.395,171.121 135.862,171.646 135.938 L 172.600 136.076 171.630 135.038 C 170.360 133.678,169.222 133.576,170.097 134.900 M228.440 134.957 C 227.781 135.658,227.683 135.962,228.071 136.096 C 228.523 136.252,230.400 134.707,230.400 134.179 C 230.400 133.656,229.224 134.123,228.440 134.957 M182.800 135.200 C 182.800 135.460,188.725 135.600,199.776 135.600 C 210.663 135.600,216.841 135.457,217.000 135.200 C 217.163 134.936,211.404 134.800,200.024 134.800 C 188.808 134.800,182.800 134.940,182.800 135.200 M128.400 141.600 C 128.400 142.040,128.591 142.400,128.824 142.400 C 129.057 142.400,129.136 142.220,129.000 142.000 C 128.864 141.780,129.033 141.600,129.376 141.600 C 129.719 141.600,130.000 141.420,130.000 141.200 C 130.000 140.980,129.640 140.800,129.200 140.800 C 128.667 140.800,128.400 141.067,128.400 141.600 M270.000 141.029 C 270.000 141.325,271.075 142.400,271.371 142.400 C 271.497 142.400,271.600 142.040,271.600 141.600 C 271.600 141.067,271.333 140.800,270.800 140.800 C 270.360 140.800,270.000 140.903,270.000 141.029 M274.000 146.600 C 274.000 146.930,274.180 147.200,274.400 147.200 C 274.620 147.200,274.800 146.930,274.800 146.600 C 274.800 146.270,274.620 146.000,274.400 146.000 C 274.180 146.000,274.000 146.270,274.000 146.600 M124.667 148.667 C 124.228 149.105,124.355 161.925,124.800 162.200 C 125.061 162.361,125.200 160.004,125.200 155.424 C 125.200 151.561,125.140 148.400,125.067 148.400 C 124.993 148.400,124.813 148.520,124.667 148.667 M274.800 149.376 C 274.800 149.939,274.980 150.400,275.200 150.400 C 275.420 150.400,275.600 150.051,275.600 149.624 C 275.600 149.197,275.420 148.736,275.200 148.600 C 274.973 148.460,274.800 148.796,274.800 149.376 M274.800 161.424 C 274.800 162.004,274.973 162.340,275.200 162.200 C 275.420 162.064,275.600 161.603,275.600 161.176 C 275.600 160.749,275.420 160.400,275.200 160.400 C 274.980 160.400,274.800 160.861,274.800 161.424 M259.673 195.000 C 259.743 195.880,259.980 196.547,260.200 196.482 C 260.682 196.339,260.490 194.362,259.939 193.800 C 259.681 193.538,259.590 193.950,259.673 195.000 M139.512 195.218 C 139.414 195.887,139.483 196.528,139.667 196.641 C 139.850 196.755,140.000 196.207,140.000 195.424 C 140.000 193.679,139.753 193.575,139.512 195.218 M259.900 198.628 C 259.735 198.796,259.605 199.578,259.612 200.367 C 259.622 201.547,259.697 201.675,260.038 201.090 C 260.496 200.302,260.375 198.145,259.900 198.628 M263.969 238.900 C 263.716 239.728,263.746 240.400,264.035 240.400 C 264.236 240.400,264.400 240.040,264.400 239.600 C 264.400 238.957,264.101 238.471,263.969 238.900 M259.856 244.278 C 259.405 244.728,259.581 245.200,260.200 245.200 C 260.530 245.200,260.800 245.031,260.800 244.824 C 260.800 244.319,260.175 243.958,259.856 244.278 M141.600 247.018 C 141.600 247.138,142.031 247.667,142.558 248.194 C 143.773 249.409,144.307 248.978,143.134 247.730 C 142.314 246.857,141.600 246.526,141.600 247.018 M256.866 247.730 C 255.693 248.978,256.227 249.409,257.442 248.194 C 257.969 247.667,258.400 247.138,258.400 247.018 C 258.400 246.526,257.686 246.857,256.866 247.730 M146.413 251.700 C 146.427 252.261,148.345 253.788,148.652 253.482 C 148.843 253.291,146.946 251.200,146.582 251.200 C 146.482 251.200,146.406 251.425,146.413 251.700 M252.100 252.256 C 251.131 253.303,251.007 253.600,251.539 253.600 C 252.071 253.600,253.600 252.156,253.600 251.653 C 253.600 250.973,253.103 251.173,252.100 252.256 M151.600 257.029 C 151.600 257.447,152.736 258.400,153.233 258.400 C 153.543 258.400,153.457 258.105,153.000 257.600 C 152.307 256.834,151.600 256.546,151.600 257.029 M247.000 257.600 C 246.543 258.105,246.457 258.400,246.767 258.400 C 247.264 258.400,248.400 257.447,248.400 257.029 C 248.400 256.546,247.693 256.834,247.000 257.600 M160.616 263.975 C 160.181 264.679,161.125 265.545,162.060 265.300 C 162.854 265.093,162.858 265.065,162.146 264.676 C 161.736 264.452,161.288 264.099,161.150 263.891 C 161.002 263.668,160.784 263.702,160.616 263.975 M238.800 263.939 C 238.800 264.125,238.395 264.482,237.900 264.731 C 237.043 265.163,237.058 265.180,238.197 265.092 C 239.319 265.006,240.291 263.600,239.229 263.600 C 238.993 263.600,238.800 263.752,238.800 263.939 M174.400 270.229 C 174.400 270.653,175.636 271.697,175.867 271.467 C 175.992 271.341,175.817 270.960,175.476 270.619 C 174.841 269.984,174.400 269.824,174.400 270.229 M224.460 270.642 C 223.731 271.466,224.200 271.857,224.981 271.076 C 225.321 270.736,225.600 270.354,225.600 270.229 C 225.600 269.809,225.006 270.024,224.460 270.642 " stroke="none" fill="#248c58" fill-rule="evenodd"></path><path id="path3" d="M134.675 134.858 C 133.500 136.142,134.095 136.410,135.325 135.151 C 135.944 134.518,136.214 134.015,135.925 134.033 C 135.636 134.052,135.074 134.423,134.675 134.858 M191.500 134.700 C 196.175 134.764,203.825 134.764,208.500 134.700 C 213.175 134.636,209.350 134.583,200.000 134.583 C 190.650 134.583,186.825 134.636,191.500 134.700 M217.558 134.766 C 218.007 135.050,217.967 135.157,217.358 135.315 C 216.880 135.438,216.998 135.496,217.678 135.470 C 218.757 135.429,218.535 134.391,217.451 134.406 C 217.194 134.410,217.240 134.565,217.558 134.766 M219.389 135.217 C 219.259 135.428,219.444 135.600,219.800 135.600 C 220.156 135.600,220.336 135.780,220.200 136.000 C 220.064 136.220,220.143 136.400,220.376 136.400 C 220.609 136.400,220.800 136.149,220.800 135.843 C 220.800 135.165,219.718 134.685,219.389 135.217 M179.200 135.843 C 179.200 136.250,178.980 136.401,178.600 136.255 C 178.270 136.129,177.997 136.244,177.994 136.513 C 177.990 136.827,177.837 136.787,177.563 136.400 C 177.218 135.912,177.168 135.907,177.295 136.375 C 177.544 137.299,178.287 137.313,179.190 136.410 C 179.651 135.949,180.203 135.678,180.415 135.809 C 180.627 135.940,180.800 135.857,180.800 135.624 C 180.800 135.391,180.440 135.200,180.000 135.200 C 179.532 135.200,179.200 135.467,179.200 135.843 M130.388 139.014 C 129.698 139.846,130.214 140.243,130.984 139.473 C 131.326 139.131,131.445 138.752,131.248 138.630 C 131.052 138.508,130.665 138.681,130.388 139.014 M268.800 138.973 C 268.800 139.719,269.565 140.195,270.025 139.735 C 270.232 139.528,270.050 139.174,269.590 138.887 C 268.940 138.481,268.800 138.496,268.800 138.973 M124.078 155.476 C 124.035 159.698,124.135 163.237,124.300 163.339 C 124.465 163.442,124.553 161.157,124.496 158.263 C 124.307 148.695,124.158 147.696,124.078 155.476 M275.664 149.467 C 275.629 150.383,275.375 151.224,275.100 151.335 C 274.708 151.493,274.711 151.544,275.113 151.568 C 275.810 151.611,276.089 150.741,275.892 149.138 C 275.741 147.907,275.723 147.933,275.664 149.467 M275.593 161.319 L 275.785 163.400 275.918 161.646 C 275.991 160.681,275.905 159.744,275.726 159.565 C 275.547 159.385,275.487 160.175,275.593 161.319 M272.267 168.500 C 271.863 168.922,271.609 169.343,271.702 169.436 C 271.795 169.529,272.199 169.243,272.600 168.800 C 273.539 167.762,273.235 167.488,272.267 168.500 M135.600 185.521 C 135.600 186.136,135.777 186.307,136.234 186.132 C 136.582 185.998,136.717 185.777,136.534 185.640 C 136.350 185.503,136.065 185.228,135.900 185.029 C 135.735 184.830,135.600 185.051,135.600 185.521 M260.893 195.200 C 260.893 195.970,260.975 196.285,261.076 195.900 C 261.176 195.515,261.176 194.885,261.076 194.500 C 260.975 194.115,260.893 194.430,260.893 195.200 M134.617 211.172 C 134.344 211.614,134.975 212.092,135.344 211.722 C 135.725 211.342,135.654 210.800,135.224 210.800 C 135.017 210.800,134.744 210.968,134.617 211.172 M134.880 238.104 C 134.631 238.404,134.588 238.857,134.779 239.166 C 135.033 239.576,135.180 239.494,135.393 238.823 C 135.732 237.753,135.473 237.389,134.880 238.104 M264.557 238.633 C 264.691 238.981,264.800 239.351,264.800 239.456 C 264.800 239.561,264.980 239.536,265.200 239.400 C 265.837 239.006,265.663 238.000,264.957 238.000 C 264.535 238.000,264.398 238.218,264.557 238.633 M138.634 244.467 C 138.957 245.090,139.409 245.600,139.639 245.600 C 139.869 245.600,139.764 245.307,139.406 244.948 C 139.047 244.590,138.837 244.080,138.939 243.815 C 139.041 243.550,138.882 243.333,138.586 243.333 C 138.147 243.333,138.156 243.542,138.634 244.467 M260.999 243.648 C 261.136 244.008,260.955 244.588,260.594 244.948 C 260.236 245.307,260.129 245.600,260.357 245.600 C 261.088 245.600,261.737 243.976,261.213 243.457 C 260.867 243.113,260.814 243.161,260.999 243.648 M146.000 252.294 C 146.000 253.054,148.303 254.881,148.618 254.371 C 148.805 254.068,148.759 253.978,148.498 254.139 C 148.264 254.284,147.607 253.848,147.036 253.170 C 146.466 252.493,146.000 252.099,146.000 252.294 M252.867 253.256 C 252.354 253.889,251.741 254.287,251.505 254.141 C 251.238 253.977,251.194 254.067,251.388 254.381 C 251.616 254.749,252.031 254.554,252.929 253.655 C 253.606 252.979,254.078 252.354,253.979 252.266 C 253.881 252.177,253.380 252.623,252.867 253.256 M150.846 256.630 C 150.821 257.087,151.295 257.897,151.900 258.430 L 153.000 259.400 152.140 258.400 C 151.667 257.850,151.193 257.040,151.086 256.600 C 150.899 255.825,150.891 255.826,150.846 256.630 M248.832 256.774 C 248.814 257.090,248.400 257.810,247.911 258.374 L 247.023 259.400 248.159 258.343 C 248.784 257.762,249.198 257.042,249.079 256.743 C 248.905 256.305,248.857 256.311,248.832 256.774 M234.182 266.370 C 234.305 266.569,234.179 266.823,233.902 266.934 C 233.590 267.060,233.656 267.149,234.076 267.168 C 234.987 267.211,235.350 266.543,234.577 266.246 C 234.237 266.116,234.059 266.172,234.182 266.370 " stroke="none" fill="#247c44" fill-rule="evenodd"></path><path id="path4" d="M196.500 259.098 C 198.425 259.171,201.575 259.171,203.500 259.098 C 205.425 259.025,203.850 258.965,200.000 258.965 C 196.150 258.965,194.575 259.025,196.500 259.098 " stroke="none" fill="#287c3c" fill-rule="evenodd"></path></g></svg>