<svg id="svg" version="1.1" xmlns="http://www.w3.org/2000/svg" xmlns:xlink="http://www.w3.org/1999/xlink" width="400" height="400" viewBox="0, 0, 400,400"><g id="svgg"><path id="path0" d="M69.200 6.400 C 69.200 6.620,68.300 6.800,67.200 6.800 C 66.100 6.800,65.200 6.980,65.200 7.200 C 65.200 7.420,64.840 7.600,64.400 7.600 C 63.960 7.600,63.600 7.780,63.600 8.000 C 63.600 8.220,63.250 8.400,62.823 8.400 C 62.395 8.400,61.810 8.715,61.523 9.100 C 61.235 9.485,60.280 10.159,59.400 10.597 C 58.520 11.036,57.323 11.891,56.740 12.497 C 56.156 13.104,55.463 13.600,55.200 13.600 C 54.937 13.600,54.217 14.140,53.600 14.800 C 52.983 15.460,52.275 16.000,52.026 16.000 C 51.776 16.000,49.785 17.800,47.600 20.000 C 45.415 22.200,43.442 24.000,43.216 24.000 C 42.677 24.000,35.600 31.071,35.600 31.609 C 35.600 32.146,32.146 35.600,31.609 35.600 C 31.071 35.600,24.000 42.677,24.000 43.216 C 24.000 43.442,22.200 45.415,20.000 47.600 C 17.800 49.785,16.000 51.776,16.000 52.026 C 16.000 52.275,15.460 52.983,14.800 53.600 C 14.140 54.217,13.600 54.937,13.600 55.200 C 13.600 55.463,13.104 56.156,12.497 56.740 C 11.891 57.323,11.036 58.520,10.597 59.400 C 10.159 60.280,9.485 61.235,9.100 61.523 C 8.715 61.810,8.400 62.395,8.400 62.823 C 8.400 63.250,8.220 63.600,8.000 63.600 C 7.780 63.600,7.600 63.960,7.600 64.400 C 7.600 64.840,7.420 65.200,7.200 65.200 C 6.980 65.200,6.800 66.100,6.800 67.200 C 6.800 68.300,6.620 69.200,6.400 69.200 C 6.139 69.200,6.000 75.600,6.000 87.600 C 6.000 99.600,6.139 106.000,6.400 106.000 C 6.620 106.000,6.800 106.810,6.800 107.800 C 6.800 108.790,6.980 109.600,7.200 109.600 C 7.420 109.600,7.600 109.960,7.600 110.400 C 7.600 110.840,7.780 111.200,8.000 111.200 C 8.220 111.200,8.400 111.560,8.400 112.000 C 8.400 112.440,8.591 112.800,8.824 112.800 C 9.057 112.800,9.136 112.980,9.000 113.200 C 8.864 113.420,9.046 113.600,9.403 113.600 C 9.845 113.600,9.981 113.829,9.828 114.312 C 9.687 114.757,9.902 115.241,10.401 115.601 C 10.840 115.917,11.200 116.425,11.200 116.728 C 11.200 117.031,11.740 117.783,12.400 118.400 C 13.060 119.017,13.600 119.769,13.600 120.072 C 13.600 120.375,13.960 120.883,14.400 121.200 C 14.840 121.517,15.200 122.097,15.200 122.488 C 15.200 122.880,15.380 123.200,15.600 123.200 C 15.820 123.200,16.000 123.560,16.000 124.000 C 16.000 124.440,16.180 124.800,16.400 124.800 C 16.620 124.800,16.800 125.070,16.800 125.400 C 16.800 125.730,16.980 126.000,17.200 126.000 C 17.420 126.000,17.600 126.900,17.600 128.000 C 17.600 129.100,17.780 130.000,18.000 130.000 C 18.220 130.000,18.400 130.720,18.400 131.600 C 18.400 132.480,18.580 133.200,18.800 133.200 C 19.020 133.200,19.200 133.740,19.200 134.400 C 19.200 135.060,19.380 135.600,19.600 135.600 C 19.820 135.600,20.000 135.920,20.000 136.312 C 20.000 136.703,20.360 137.283,20.800 137.600 C 21.240 137.917,21.600 138.425,21.600 138.728 C 21.600 139.031,22.140 139.783,22.800 140.400 C 23.460 141.017,24.000 141.642,24.000 141.789 C 24.000 141.937,24.225 142.308,24.500 142.615 C 25.744 144.002,26.000 144.406,26.000 144.983 C 26.000 145.322,26.274 145.600,26.610 145.600 C 26.968 145.600,27.319 146.096,27.460 146.800 C 27.592 147.460,27.857 148.000,28.050 148.000 C 28.242 148.000,28.400 148.360,28.400 148.800 C 28.400 149.240,28.580 149.600,28.800 149.600 C 29.020 149.600,29.200 149.960,29.200 150.400 C 29.200 150.840,29.380 151.200,29.600 151.200 C 29.820 151.200,30.000 152.100,30.000 153.200 C 30.000 154.300,30.180 155.200,30.400 155.200 C 30.620 155.200,30.800 155.920,30.800 156.800 C 30.800 157.680,30.980 158.400,31.200 158.400 C 31.420 158.400,31.600 158.850,31.600 159.400 C 31.600 159.950,31.780 160.400,32.000 160.400 C 32.220 160.400,32.400 160.720,32.400 161.112 C 32.400 161.503,32.760 162.083,33.200 162.400 C 33.640 162.717,34.000 163.225,34.000 163.528 C 34.000 163.831,34.540 164.583,35.200 165.200 C 35.860 165.817,36.400 166.537,36.400 166.800 C 36.400 167.063,36.940 167.783,37.600 168.400 C 38.260 169.017,38.800 169.769,38.800 170.072 C 38.800 170.375,39.160 170.883,39.600 171.200 C 40.040 171.517,40.400 172.097,40.400 172.488 C 40.400 172.880,40.580 173.200,40.800 173.200 C 41.020 173.200,41.201 173.425,41.202 173.700 C 41.204 173.975,41.464 174.697,41.782 175.305 C 42.099 175.913,42.396 177.578,42.442 179.005 C 42.502 180.868,42.678 181.600,43.063 181.600 C 43.501 181.600,43.600 183.924,43.600 194.200 C 43.600 205.133,43.521 206.800,43.000 206.800 C 42.549 206.800,42.400 207.284,42.400 208.754 C 42.400 209.829,42.131 211.224,41.802 211.854 C 41.474 212.484,41.204 213.315,41.202 213.700 C 41.201 214.085,41.020 214.400,40.800 214.400 C 40.580 214.400,40.400 214.720,40.400 215.112 C 40.400 215.503,40.040 216.083,39.600 216.400 C 39.160 216.717,38.800 217.225,38.800 217.528 C 38.800 217.831,38.260 218.583,37.600 219.200 C 36.940 219.817,36.400 220.569,36.400 220.872 C 36.400 221.175,36.040 221.683,35.600 222.000 C 35.160 222.317,34.800 222.857,34.800 223.200 C 34.800 223.543,34.440 224.083,34.000 224.400 C 33.560 224.717,33.200 225.207,33.200 225.488 C 33.200 225.770,33.020 226.000,32.800 226.000 C 32.580 226.000,32.400 226.360,32.400 226.800 C 32.400 227.240,32.220 227.600,32.000 227.600 C 31.780 227.600,31.600 228.500,31.600 229.600 C 31.600 230.700,31.420 231.600,31.200 231.600 C 30.937 231.600,30.800 242.133,30.800 262.400 C 30.800 282.667,30.937 293.200,31.200 293.200 C 31.420 293.200,31.600 294.100,31.600 295.200 C 31.600 296.300,31.780 297.200,32.000 297.200 C 32.220 297.200,32.400 297.560,32.400 298.000 C 32.400 298.440,32.580 298.800,32.800 298.800 C 33.020 298.800,33.200 299.120,33.200 299.512 C 33.200 299.903,33.560 300.483,34.000 300.800 C 34.440 301.117,34.800 301.657,34.800 302.000 C 34.800 302.343,35.160 302.883,35.600 303.200 C 36.040 303.517,36.400 304.025,36.400 304.328 C 36.400 304.631,36.940 305.383,37.600 306.000 C 38.260 306.617,38.800 307.439,38.800 307.827 C 38.800 308.216,38.909 308.424,39.042 308.291 C 39.389 307.944,41.200 309.848,41.200 310.559 C 41.200 310.887,41.559 311.406,41.997 311.713 C 42.436 312.020,42.676 312.391,42.531 312.536 C 42.386 312.681,42.567 312.800,42.933 312.800 C 43.300 312.800,43.600 312.977,43.600 313.193 C 43.600 313.409,44.770 314.755,46.200 316.185 C 47.630 317.615,48.800 318.977,48.800 319.212 C 48.800 319.447,50.105 320.891,51.700 322.422 C 55.800 326.356,56.317 326.800,56.804 326.800 C 57.042 326.800,57.686 327.250,58.236 327.800 C 58.786 328.350,59.098 328.800,58.929 328.800 C 58.760 328.800,59.022 329.080,59.511 329.423 C 60.000 329.765,60.400 330.307,60.400 330.627 C 60.400 331.288,68.564 339.600,69.214 339.600 C 69.446 339.600,70.053 340.005,70.563 340.500 C 71.073 340.995,71.874 341.665,72.345 341.988 C 72.815 342.312,73.200 342.815,73.200 343.106 C 73.200 343.398,73.605 344.053,74.100 344.563 C 74.595 345.073,75.265 345.874,75.588 346.345 C 75.912 346.815,76.407 347.200,76.688 347.200 C 76.970 347.200,77.200 347.365,77.200 347.567 C 77.200 348.102,80.257 351.200,80.784 351.200 C 81.030 351.200,82.825 352.808,84.774 354.774 C 86.724 356.740,88.427 358.240,88.559 358.108 C 88.692 357.975,88.800 358.077,88.800 358.333 C 88.800 358.590,89.115 358.802,89.500 358.804 C 89.885 358.806,90.625 359.346,91.145 360.004 C 91.665 360.662,92.430 361.200,92.845 361.200 C 93.260 361.200,93.600 361.352,93.600 361.539 C 93.600 362.092,95.054 363.600,95.586 363.600 C 95.857 363.600,96.583 364.140,97.200 364.800 C 97.817 365.460,98.569 366.000,98.872 366.000 C 99.175 366.000,99.683 366.360,100.000 366.800 C 100.317 367.240,100.897 367.600,101.288 367.600 C 101.680 367.600,102.000 367.780,102.000 368.000 C 102.000 368.220,102.540 368.400,103.200 368.400 C 103.860 368.400,104.400 368.580,104.400 368.800 C 104.400 369.020,105.120 369.200,106.000 369.200 C 106.880 369.200,107.600 369.380,107.600 369.600 C 107.600 369.820,108.410 370.000,109.400 370.000 C 110.390 370.000,111.200 370.180,111.200 370.400 C 111.200 370.620,111.560 370.800,112.000 370.800 C 112.440 370.800,112.800 370.980,112.800 371.200 C 112.800 371.420,113.160 371.600,113.600 371.600 C 114.040 371.600,114.400 371.780,114.400 372.000 C 114.400 372.220,114.720 372.400,115.112 372.400 C 115.503 372.400,116.083 372.760,116.400 373.200 C 116.717 373.640,117.220 374.000,117.517 374.000 C 117.814 374.000,118.308 374.225,118.615 374.500 C 119.955 375.702,120.394 376.000,120.823 376.000 C 121.074 376.000,121.783 376.540,122.400 377.200 C 123.017 377.860,123.797 378.400,124.134 378.400 C 124.470 378.400,124.860 378.760,125.000 379.200 C 125.162 379.711,125.605 380.000,126.227 380.000 C 126.762 380.000,127.200 380.180,127.200 380.400 C 127.200 380.620,127.650 380.800,128.200 380.800 C 128.750 380.800,129.200 380.980,129.200 381.200 C 129.200 381.420,129.920 381.600,130.800 381.600 C 131.680 381.600,132.400 381.780,132.400 382.000 C 132.400 382.220,133.300 382.400,134.400 382.400 C 135.500 382.400,136.400 382.580,136.400 382.800 C 136.400 383.020,136.760 383.200,137.200 383.200 C 137.640 383.200,138.000 383.380,138.000 383.600 C 138.000 383.820,138.360 384.000,138.800 384.000 C 139.240 384.000,139.600 384.180,139.600 384.400 C 139.600 384.620,139.917 384.800,140.304 384.800 C 140.691 384.800,141.232 385.160,141.507 385.600 C 141.782 386.040,142.203 386.400,142.443 386.400 C 142.683 386.400,143.383 386.940,144.000 387.600 C 144.617 388.260,145.369 388.800,145.672 388.800 C 145.975 388.800,146.483 389.160,146.800 389.600 C 147.117 390.040,147.620 390.400,147.917 390.400 C 148.214 390.400,148.727 390.670,149.057 391.000 C 149.387 391.330,150.004 391.600,150.429 391.600 C 150.853 391.600,151.200 391.780,151.200 392.000 C 151.200 392.220,151.560 392.400,152.000 392.400 C 152.440 392.400,152.800 392.580,152.800 392.800 C 152.800 393.020,153.340 393.200,154.000 393.200 C 154.660 393.200,155.200 393.380,155.200 393.600 C 155.200 393.864,170.400 394.000,200.000 394.000 C 229.600 394.000,244.800 393.864,244.800 393.600 C 244.800 393.380,245.340 393.200,246.000 393.200 C 246.660 393.200,247.200 393.020,247.200 392.800 C 247.200 392.580,247.560 392.400,248.000 392.400 C 248.440 392.400,248.800 392.220,248.800 392.000 C 248.800 391.780,249.147 391.600,249.571 391.600 C 249.996 391.600,250.613 391.330,250.943 391.000 C 251.273 390.670,251.786 390.400,252.083 390.400 C 252.380 390.400,252.883 390.040,253.200 389.600 C 253.517 389.160,254.025 388.800,254.328 388.800 C 254.631 388.800,255.383 388.260,256.000 387.600 C 256.617 386.940,257.397 386.400,257.734 386.400 C 258.070 386.400,258.460 386.040,258.600 385.600 C 258.740 385.160,259.202 384.800,259.627 384.800 C 260.052 384.800,260.400 384.620,260.400 384.400 C 260.400 384.180,260.760 384.000,261.200 384.000 C 261.640 384.000,262.000 383.820,262.000 383.600 C 262.000 383.380,262.360 383.200,262.800 383.200 C 263.240 383.200,263.600 383.020,263.600 382.800 C 263.600 382.580,264.500 382.400,265.600 382.400 C 266.700 382.400,267.600 382.220,267.600 382.000 C 267.600 381.780,268.320 381.600,269.200 381.600 C 270.080 381.600,270.800 381.420,270.800 381.200 C 270.800 380.980,271.340 380.800,272.000 380.800 C 272.660 380.800,273.200 380.620,273.200 380.400 C 273.200 380.180,273.548 380.000,273.973 380.000 C 274.398 380.000,274.860 379.640,275.000 379.200 C 275.140 378.760,275.530 378.400,275.866 378.400 C 276.203 378.400,276.983 377.860,277.600 377.200 C 278.217 376.540,278.932 376.000,279.189 376.000 C 279.447 376.000,279.908 375.775,280.215 375.500 C 281.579 374.277,281.999 374.000,282.495 374.000 C 282.786 374.000,283.283 373.640,283.600 373.200 C 283.917 372.760,284.497 372.400,284.888 372.400 C 285.280 372.400,285.600 372.220,285.600 372.000 C 285.600 371.780,285.960 371.600,286.400 371.600 C 286.840 371.600,287.200 371.420,287.200 371.200 C 287.200 370.980,287.560 370.800,288.000 370.800 C 288.440 370.800,288.800 370.620,288.800 370.400 C 288.800 370.180,289.610 370.000,290.600 370.000 C 291.590 370.000,292.400 369.820,292.400 369.600 C 292.400 369.380,293.120 369.200,294.000 369.200 C 294.880 369.200,295.600 369.020,295.600 368.800 C 295.600 368.580,296.140 368.400,296.800 368.400 C 297.460 368.400,298.000 368.220,298.000 368.000 C 298.000 367.780,298.320 367.600,298.712 367.600 C 299.103 367.600,299.683 367.240,300.000 366.800 C 300.317 366.360,300.825 366.000,301.128 366.000 C 301.431 366.000,302.183 365.460,302.800 364.800 C 303.417 364.140,304.137 363.600,304.400 363.600 C 304.663 363.600,305.383 363.060,306.000 362.400 C 306.617 361.740,307.298 361.200,307.515 361.200 C 307.732 361.200,308.335 360.662,308.855 360.004 C 309.375 359.346,310.097 358.806,310.460 358.804 C 310.822 358.802,312.852 357.090,314.969 355.000 C 317.086 352.910,319.003 351.200,319.229 351.200 C 319.454 351.200,320.891 349.895,322.422 348.300 C 326.440 344.113,326.800 343.686,326.800 343.103 C 326.800 342.813,327.185 342.312,327.655 341.988 C 328.126 341.665,328.927 340.995,329.437 340.500 C 329.947 340.005,330.554 339.600,330.786 339.600 C 331.338 339.600,339.600 331.338,339.600 330.786 C 339.600 330.554,340.005 329.947,340.500 329.437 C 340.995 328.927,341.665 328.126,341.988 327.655 C 342.312 327.185,342.813 326.800,343.103 326.800 C 343.686 326.800,344.113 326.440,348.300 322.422 C 349.895 320.891,351.200 319.454,351.200 319.229 C 351.200 319.003,352.910 317.086,355.000 314.969 C 357.090 312.852,358.802 310.822,358.804 310.460 C 358.806 310.097,359.346 309.375,360.004 308.855 C 360.662 308.335,361.200 307.732,361.200 307.515 C 361.200 307.298,361.740 306.617,362.400 306.000 C 363.060 305.383,363.600 304.631,363.600 304.328 C 363.600 304.025,363.960 303.517,364.400 303.200 C 364.840 302.883,365.200 302.343,365.200 302.000 C 365.200 301.657,365.560 301.117,366.000 300.800 C 366.440 300.483,366.800 299.903,366.800 299.512 C 366.800 299.120,366.980 298.800,367.200 298.800 C 367.420 298.800,367.600 298.440,367.600 298.000 C 367.600 297.560,367.780 297.200,368.000 297.200 C 368.220 297.200,368.400 296.300,368.400 295.200 C 368.400 294.100,368.580 293.200,368.800 293.200 C 369.063 293.200,369.200 282.667,369.200 262.400 C 369.200 242.133,369.063 231.600,368.800 231.600 C 368.580 231.600,368.400 230.700,368.400 229.600 C 368.400 228.500,368.220 227.600,368.000 227.600 C 367.780 227.600,367.600 227.240,367.600 226.800 C 367.600 226.360,367.420 226.000,367.200 226.000 C 366.980 226.000,366.800 225.770,366.800 225.488 C 366.800 225.207,366.440 224.717,366.000 224.400 C 365.560 224.083,365.200 223.543,365.200 223.200 C 365.200 222.857,364.840 222.317,364.400 222.000 C 363.960 221.683,363.600 221.175,363.600 220.872 C 363.600 220.569,363.060 219.817,362.400 219.200 C 361.740 218.583,361.200 217.831,361.200 217.528 C 361.200 217.225,360.840 216.717,360.400 216.400 C 359.960 216.083,359.600 215.503,359.600 215.112 C 359.600 214.720,359.420 214.400,359.200 214.400 C 358.980 214.400,358.799 214.085,358.798 213.700 C 358.796 213.315,358.526 212.484,358.198 211.854 C 357.869 211.224,357.600 209.829,357.600 208.754 C 357.600 207.679,357.420 206.800,357.200 206.800 C 356.942 206.800,356.800 202.333,356.800 194.200 C 356.800 186.067,356.942 181.600,357.200 181.600 C 357.429 181.600,357.600 180.400,357.600 178.800 C 357.600 177.260,357.772 176.000,357.982 176.000 C 358.192 176.000,358.482 175.370,358.626 174.600 C 358.771 173.830,359.049 173.200,359.245 173.200 C 359.440 173.200,359.600 172.880,359.600 172.488 C 359.600 172.097,359.960 171.517,360.400 171.200 C 360.840 170.883,361.200 170.375,361.200 170.072 C 361.200 169.769,361.740 169.017,362.400 168.400 C 363.060 167.783,363.600 167.063,363.600 166.800 C 363.600 166.537,364.140 165.817,364.800 165.200 C 365.460 164.583,366.000 163.831,366.000 163.528 C 366.000 163.225,366.360 162.717,366.800 162.400 C 367.240 162.083,367.600 161.503,367.600 161.112 C 367.600 160.720,367.780 160.400,368.000 160.400 C 368.220 160.400,368.400 159.950,368.400 159.400 C 368.400 158.850,368.580 158.400,368.800 158.400 C 369.020 158.400,369.200 157.680,369.200 156.800 C 369.200 155.920,369.380 155.200,369.600 155.200 C 369.820 155.200,370.000 154.300,370.000 153.200 C 370.000 152.100,370.180 151.200,370.400 151.200 C 370.620 151.200,370.800 150.840,370.800 150.400 C 370.800 149.960,370.980 149.600,371.200 149.600 C 371.420 149.600,371.600 149.240,371.600 148.800 C 371.600 148.360,371.780 148.000,372.000 148.000 C 372.220 148.000,372.400 147.680,372.400 147.288 C 372.400 146.897,372.760 146.317,373.200 146.000 C 373.640 145.683,374.000 145.146,374.000 144.808 C 374.000 144.469,374.450 143.707,375.000 143.113 C 375.550 142.520,376.000 141.919,376.000 141.778 C 376.000 141.637,376.540 141.017,377.200 140.400 C 377.860 139.783,378.400 139.031,378.400 138.728 C 378.400 138.425,378.760 137.917,379.200 137.600 C 379.640 137.283,380.000 136.703,380.000 136.312 C 380.000 135.920,380.180 135.600,380.400 135.600 C 380.620 135.600,380.800 135.060,380.800 134.400 C 380.800 133.740,380.980 133.200,381.200 133.200 C 381.420 133.200,381.600 132.480,381.600 131.600 C 381.600 130.720,381.780 130.000,382.000 130.000 C 382.220 130.000,382.400 129.100,382.400 128.000 C 382.400 126.900,382.580 126.000,382.800 126.000 C 383.020 126.000,383.200 125.730,383.200 125.400 C 383.200 125.070,383.380 124.800,383.600 124.800 C 383.820 124.800,384.000 124.440,384.000 124.000 C 384.000 123.560,384.180 123.200,384.400 123.200 C 384.620 123.200,384.800 122.880,384.800 122.488 C 384.800 122.097,385.160 121.517,385.600 121.200 C 386.040 120.883,386.400 120.375,386.400 120.072 C 386.400 119.769,386.940 119.017,387.600 118.400 C 388.260 117.783,388.800 117.031,388.800 116.728 C 388.800 116.425,389.160 115.917,389.600 115.600 C 390.040 115.283,390.400 114.780,390.400 114.483 C 390.400 114.186,390.670 113.673,391.000 113.343 C 391.330 113.013,391.600 112.396,391.600 111.971 C 391.600 111.547,391.780 111.200,392.000 111.200 C 392.220 111.200,392.400 110.840,392.400 110.400 C 392.400 109.960,392.580 109.600,392.800 109.600 C 393.020 109.600,393.200 109.150,393.200 108.600 C 393.200 108.050,393.380 107.600,393.600 107.600 C 393.861 107.600,394.000 100.667,394.000 87.600 C 394.000 74.533,393.861 67.600,393.600 67.600 C 393.380 67.600,393.200 67.060,393.200 66.400 C 393.200 65.740,393.020 65.200,392.800 65.200 C 392.580 65.200,392.400 64.840,392.400 64.400 C 392.400 63.960,392.220 63.600,392.000 63.600 C 391.780 63.600,391.600 63.262,391.600 62.849 C 391.600 62.436,391.330 61.874,391.000 61.600 C 390.670 61.326,390.400 60.854,390.400 60.551 C 390.400 60.248,390.250 60.000,390.068 60.000 C 389.885 60.000,389.480 59.505,389.168 58.900 C 388.855 58.295,388.105 57.323,387.500 56.740 C 386.895 56.156,386.400 55.463,386.400 55.200 C 386.400 54.937,385.860 54.217,385.200 53.600 C 384.540 52.983,384.000 52.275,384.000 52.026 C 384.000 51.776,382.200 49.785,380.000 47.600 C 377.800 45.415,376.000 43.461,376.000 43.256 C 376.000 42.730,368.931 35.600,368.409 35.600 C 367.859 35.600,364.400 32.156,364.400 31.609 C 364.400 31.071,357.323 24.000,356.784 24.000 C 356.558 24.000,354.585 22.200,352.400 20.000 C 350.215 17.800,348.224 16.000,347.974 16.000 C 347.725 16.000,347.017 15.460,346.400 14.800 C 345.783 14.140,345.063 13.600,344.800 13.600 C 344.537 13.600,343.817 13.060,343.200 12.400 C 342.583 11.740,341.903 11.200,341.688 11.200 C 341.474 11.200,341.074 10.930,340.800 10.600 C 340.526 10.270,340.007 10.000,339.647 10.000 C 339.287 10.000,338.768 9.640,338.493 9.200 C 338.218 8.760,337.635 8.400,337.197 8.400 C 336.758 8.400,336.400 8.220,336.400 8.000 C 336.400 7.780,336.040 7.600,335.600 7.600 C 335.160 7.600,334.800 7.420,334.800 7.200 C 334.800 6.980,333.900 6.800,332.800 6.800 C 331.700 6.800,330.800 6.620,330.800 6.400 C 330.800 6.142,326.533 6.000,318.800 6.000 C 311.067 6.000,306.800 6.142,306.800 6.400 C 306.800 6.620,305.900 6.800,304.800 6.800 C 303.700 6.800,302.800 6.980,302.800 7.200 C 302.800 7.420,302.440 7.600,302.000 7.600 C 301.560 7.600,301.200 7.780,301.200 8.000 C 301.200 8.220,300.840 8.400,300.400 8.400 C 299.960 8.400,299.600 8.591,299.600 8.824 C 299.600 9.057,299.420 9.136,299.200 9.000 C 298.980 8.864,298.800 9.046,298.800 9.403 C 298.800 9.845,298.571 9.981,298.088 9.828 C 297.643 9.687,297.159 9.902,296.799 10.401 C 296.483 10.840,295.975 11.200,295.672 11.200 C 295.369 11.200,294.617 11.740,294.000 12.400 C 293.383 13.060,292.702 13.600,292.485 13.600 C 292.268 13.600,291.665 14.138,291.145 14.796 C 290.625 15.454,289.969 15.994,289.686 15.996 C 289.403 15.998,287.385 17.800,285.200 20.000 C 283.015 22.200,281.016 24.000,280.757 24.000 C 280.498 24.000,279.772 24.538,279.143 25.196 C 278.514 25.854,278.000 26.298,278.000 26.182 C 278.000 26.066,277.574 26.383,277.054 26.886 C 276.533 27.389,276.154 27.856,276.212 27.925 C 276.270 27.994,275.616 28.745,274.759 29.594 C 273.901 30.443,273.200 31.336,273.200 31.579 C 273.200 32.151,269.756 35.600,269.185 35.600 C 268.944 35.600,267.871 36.500,266.800 37.600 C 265.729 38.700,264.570 39.600,264.226 39.600 C 263.882 39.600,263.600 39.780,263.600 40.000 C 263.600 40.220,262.700 40.400,261.600 40.400 C 260.500 40.400,259.600 40.220,259.600 40.000 C 259.600 39.780,259.210 39.600,258.733 39.600 C 258.257 39.600,257.978 39.489,258.114 39.352 C 258.447 39.019,257.394 38.000,256.717 38.000 C 256.420 38.000,255.917 37.640,255.600 37.200 C 255.283 36.760,254.743 36.400,254.400 36.400 C 254.057 36.400,253.517 36.040,253.200 35.600 C 252.883 35.160,252.343 34.800,252.000 34.800 C 251.657 34.800,251.117 34.440,250.800 34.000 C 250.483 33.560,249.903 33.200,249.512 33.200 C 249.120 33.200,248.800 33.020,248.800 32.800 C 248.800 32.580,248.440 32.400,248.000 32.400 C 247.560 32.400,247.200 32.220,247.200 32.000 C 247.200 31.780,246.300 31.600,245.200 31.600 C 244.100 31.600,243.200 31.420,243.200 31.200 C 243.200 30.936,228.533 30.800,200.000 30.800 C 171.467 30.800,156.800 30.936,156.800 31.200 C 156.800 31.420,155.900 31.600,154.800 31.600 C 153.700 31.600,152.800 31.780,152.800 32.000 C 152.800 32.220,152.440 32.400,152.000 32.400 C 151.560 32.400,151.200 32.580,151.200 32.800 C 151.200 33.020,150.880 33.200,150.488 33.200 C 150.097 33.200,149.517 33.560,149.200 34.000 C 148.883 34.440,148.343 34.800,148.000 34.800 C 147.657 34.800,147.117 35.160,146.800 35.600 C 146.483 36.040,145.943 36.400,145.600 36.400 C 145.257 36.400,144.717 36.760,144.400 37.200 C 144.083 37.640,143.493 38.000,143.088 38.000 C 142.684 38.000,142.454 38.164,142.579 38.365 C 142.703 38.566,142.264 38.970,141.602 39.263 C 140.941 39.556,140.400 39.931,140.400 40.098 C 140.400 40.264,139.500 40.400,138.400 40.400 C 137.300 40.400,136.400 40.220,136.400 40.000 C 136.400 39.780,136.118 39.600,135.774 39.600 C 135.430 39.600,134.271 38.700,133.200 37.600 C 132.129 36.500,131.056 35.600,130.815 35.600 C 130.270 35.600,126.800 32.164,126.800 31.624 C 126.800 31.259,126.189 30.516,123.100 27.124 C 122.495 26.459,122.000 26.023,122.000 26.154 C 122.000 26.285,121.486 25.854,120.857 25.196 C 120.228 24.538,119.502 24.000,119.243 24.000 C 118.984 24.000,116.985 22.200,114.800 20.000 C 112.615 17.800,110.618 16.000,110.361 16.000 C 109.848 16.000,108.400 14.478,108.400 13.939 C 108.400 13.752,108.112 13.600,107.760 13.600 C 107.409 13.600,106.617 13.060,106.000 12.400 C 105.383 11.740,104.631 11.200,104.328 11.200 C 104.025 11.200,103.517 10.840,103.201 10.401 C 102.841 9.902,102.357 9.687,101.912 9.828 C 101.429 9.981,101.200 9.845,101.200 9.403 C 101.200 9.046,101.020 8.864,100.800 9.000 C 100.580 9.136,100.400 9.057,100.400 8.824 C 100.400 8.591,100.040 8.400,99.600 8.400 C 99.160 8.400,98.800 8.220,98.800 8.000 C 98.800 7.780,98.440 7.600,98.000 7.600 C 97.560 7.600,97.200 7.420,97.200 7.200 C 97.200 6.980,96.300 6.800,95.200 6.800 C 94.100 6.800,93.200 6.620,93.200 6.400 C 93.200 6.142,88.933 6.000,81.200 6.000 C 73.467 6.000,69.200 6.142,69.200 6.400 M100.400 20.400 C 100.400 20.620,100.808 20.800,101.306 20.800 C 102.799 20.800,108.391 23.087,108.397 23.700 C 108.399 23.865,108.661 24.000,108.979 24.000 C 109.298 24.000,110.044 24.450,110.638 25.000 C 111.231 25.550,111.869 26.000,112.056 26.000 C 112.242 26.000,114.744 28.340,117.615 31.200 C 120.486 34.060,123.011 36.400,123.225 36.400 C 123.439 36.400,124.226 37.030,124.974 37.800 C 125.721 38.570,126.231 39.200,126.105 39.200 C 125.980 39.200,126.265 39.536,126.739 39.947 C 127.212 40.358,127.600 40.811,127.600 40.954 C 127.600 41.363,132.741 46.400,133.158 46.400 C 133.363 46.400,134.627 47.480,135.968 48.800 C 137.308 50.120,138.674 51.200,139.003 51.200 C 139.331 51.200,139.600 51.380,139.600 51.600 C 139.600 51.820,140.410 52.000,141.400 52.000 C 142.390 52.000,143.200 51.850,143.200 51.668 C 143.200 51.485,143.695 51.081,144.300 50.770 C 144.905 50.460,145.691 49.889,146.047 49.503 C 146.403 49.116,146.988 48.800,147.347 48.800 C 147.706 48.800,148.000 48.620,148.000 48.400 C 148.000 48.180,148.320 48.000,148.712 48.000 C 149.103 48.000,149.683 47.640,150.000 47.200 C 150.317 46.760,150.897 46.400,151.288 46.400 C 151.680 46.400,152.000 46.220,152.000 46.000 C 152.000 45.780,152.360 45.600,152.800 45.600 C 153.240 45.600,153.600 45.420,153.600 45.200 C 153.600 44.980,154.140 44.800,154.800 44.800 C 155.460 44.800,156.000 44.620,156.000 44.400 C 156.000 44.136,170.933 44.000,200.000 44.000 C 229.067 44.000,244.000 44.136,244.000 44.400 C 244.000 44.620,244.540 44.800,245.200 44.800 C 245.860 44.800,246.400 44.980,246.400 45.200 C 246.400 45.420,246.760 45.600,247.200 45.600 C 247.640 45.600,248.000 45.780,248.000 46.000 C 248.000 46.220,248.320 46.400,248.712 46.400 C 249.103 46.400,249.683 46.760,250.000 47.200 C 250.317 47.640,250.897 48.000,251.288 48.000 C 251.680 48.000,252.000 48.180,252.000 48.400 C 252.000 48.620,252.294 48.800,252.653 48.800 C 253.012 48.800,253.597 49.116,253.953 49.503 C 254.309 49.889,255.095 50.460,255.700 50.770 C 256.305 51.081,256.800 51.485,256.800 51.668 C 256.800 51.850,257.610 52.000,258.600 52.000 C 259.590 52.000,260.400 51.820,260.400 51.600 C 260.400 51.380,260.669 51.200,260.997 51.200 C 261.326 51.200,262.692 50.120,264.032 48.800 C 265.373 47.480,266.637 46.400,266.842 46.400 C 267.234 46.400,272.400 41.375,272.400 40.994 C 272.400 40.873,272.985 40.175,273.700 39.445 C 274.415 38.714,275.265 37.730,275.588 37.258 C 275.912 36.786,276.399 36.400,276.671 36.400 C 276.942 36.400,279.473 34.105,282.294 31.300 C 285.114 28.495,288.092 25.844,288.911 25.409 C 289.730 24.974,290.400 24.479,290.400 24.309 C 290.400 24.139,290.670 24.000,291.000 24.000 C 291.330 24.000,291.601 23.865,291.603 23.700 C 291.609 23.087,297.201 20.800,298.694 20.800 C 299.192 20.800,299.600 20.620,299.600 20.400 C 299.600 20.142,304.067 20.000,312.200 20.000 C 320.333 20.000,324.800 20.142,324.800 20.400 C 324.800 20.620,325.419 20.800,326.176 20.800 C 326.933 20.800,327.664 20.980,327.800 21.200 C 327.936 21.420,328.487 21.600,329.024 21.600 C 329.561 21.600,330.000 21.780,330.000 22.000 C 330.000 22.220,330.360 22.400,330.800 22.400 C 331.240 22.400,331.600 22.550,331.600 22.732 C 331.600 22.915,332.095 23.320,332.700 23.632 C 333.305 23.945,334.038 24.425,334.329 24.700 C 334.619 24.975,335.122 25.200,335.446 25.200 C 335.769 25.200,337.544 26.730,339.389 28.600 C 341.234 30.470,342.653 32.000,342.543 32.000 C 342.433 32.000,342.613 32.270,342.943 32.600 C 343.273 32.930,343.696 33.200,343.883 33.200 C 344.070 33.200,344.483 33.560,344.800 34.000 C 345.117 34.440,345.519 34.800,345.694 34.800 C 346.043 34.800,352.800 41.458,352.800 41.802 C 352.800 42.349,358.065 47.200,358.659 47.200 C 359.030 47.200,359.224 47.309,359.091 47.443 C 358.957 47.576,360.097 48.918,361.624 50.424 C 363.151 51.929,364.401 53.305,364.402 53.481 C 364.405 53.822,367.422 56.929,371.500 60.789 C 372.875 62.091,374.000 63.436,374.000 63.778 C 374.000 64.120,374.151 64.400,374.336 64.400 C 374.520 64.400,375.015 65.118,375.436 65.995 C 375.856 66.873,376.408 67.593,376.663 67.595 C 376.928 67.598,377.036 67.942,376.916 68.400 C 376.799 68.847,376.904 69.200,377.153 69.200 C 377.399 69.200,377.600 69.560,377.600 70.000 C 377.600 70.440,377.780 70.800,378.000 70.800 C 378.220 70.800,378.400 71.239,378.400 71.776 C 378.400 72.313,378.580 72.864,378.800 73.000 C 379.033 73.144,379.200 75.396,379.200 78.400 C 379.200 81.404,379.367 83.656,379.600 83.800 C 379.849 83.954,380.000 87.737,380.000 93.824 C 380.000 100.075,379.856 103.600,379.600 103.600 C 379.355 103.600,379.200 105.525,379.200 108.576 C 379.200 111.463,379.032 113.657,378.800 113.800 C 378.580 113.936,378.400 114.487,378.400 115.024 C 378.400 115.561,378.220 116.000,378.000 116.000 C 377.780 116.000,377.600 116.360,377.600 116.800 C 377.600 117.240,377.399 117.600,377.153 117.600 C 376.904 117.600,376.799 117.953,376.916 118.400 C 377.052 118.920,376.928 119.200,376.563 119.200 C 376.253 119.200,376.000 119.560,376.000 120.000 C 376.000 120.440,375.823 120.800,375.608 120.800 C 375.392 120.800,375.092 121.295,374.940 121.900 C 374.789 122.505,374.156 123.477,373.533 124.060 C 372.910 124.644,372.400 125.317,372.400 125.557 C 372.400 125.797,372.040 126.218,371.600 126.493 C 371.160 126.768,370.800 127.309,370.800 127.696 C 370.800 128.083,370.620 128.400,370.400 128.400 C 370.180 128.400,370.000 128.760,370.000 129.200 C 370.000 129.640,369.820 130.000,369.600 130.000 C 369.380 130.000,369.200 130.349,369.200 130.776 C 369.200 131.203,369.020 131.664,368.800 131.800 C 368.580 131.936,368.400 132.847,368.400 133.824 C 368.400 134.801,368.220 135.600,368.000 135.600 C 367.780 135.600,367.600 136.140,367.600 136.800 C 367.600 137.460,367.420 138.000,367.200 138.000 C 366.980 138.000,366.800 138.540,366.800 139.200 C 366.800 139.860,366.620 140.400,366.400 140.400 C 366.180 140.400,366.000 140.642,366.000 140.938 C 366.000 141.234,365.640 141.802,365.200 142.200 C 364.760 142.598,364.400 143.166,364.400 143.462 C 364.400 143.758,364.220 144.000,364.000 144.000 C 363.780 144.000,363.600 144.288,363.600 144.640 C 363.600 144.991,363.060 145.783,362.400 146.400 C 361.740 147.017,361.200 147.720,361.200 147.964 C 361.200 148.208,360.654 148.979,359.986 149.678 C 359.318 150.377,358.862 151.185,358.973 151.474 C 359.084 151.763,359.001 152.000,358.787 152.000 C 358.574 152.000,358.400 152.360,358.400 152.800 C 358.400 153.240,358.220 153.600,358.000 153.600 C 357.780 153.600,357.600 153.960,357.600 154.400 C 357.600 154.840,357.420 155.200,357.200 155.200 C 356.980 155.200,356.800 155.920,356.800 156.800 C 356.800 157.680,356.620 158.400,356.400 158.400 C 356.180 158.400,356.000 159.030,356.000 159.800 C 356.000 160.570,355.820 161.200,355.600 161.200 C 355.380 161.200,355.200 161.740,355.200 162.400 C 355.200 163.060,355.020 163.600,354.800 163.600 C 354.580 163.600,354.400 163.920,354.400 164.312 C 354.400 164.703,354.040 165.283,353.600 165.600 C 353.160 165.917,352.800 166.497,352.800 166.888 C 352.800 167.280,352.620 167.600,352.400 167.600 C 352.180 167.600,352.000 167.888,352.000 168.240 C 352.000 168.591,351.460 169.383,350.800 170.000 C 350.140 170.617,349.600 171.337,349.600 171.600 C 349.600 171.863,349.093 172.556,348.473 173.140 C 347.853 173.723,347.089 174.785,346.775 175.500 C 346.462 176.215,346.069 176.800,345.902 176.800 C 345.736 176.800,345.600 177.239,345.600 177.776 C 345.600 178.313,345.420 178.864,345.200 179.000 C 344.980 179.136,344.800 180.281,344.800 181.544 C 344.800 182.807,344.614 184.026,344.386 184.254 C 343.573 185.067,344.393 208.800,345.234 208.800 C 345.435 208.800,345.600 209.340,345.600 210.000 C 345.600 210.660,345.780 211.200,346.000 211.200 C 346.220 211.200,346.400 211.520,346.400 211.912 C 346.400 212.303,346.760 212.883,347.200 213.200 C 347.640 213.517,348.000 214.025,348.000 214.328 C 348.000 214.631,348.540 215.383,349.200 216.000 C 349.860 216.617,350.400 217.369,350.400 217.672 C 350.400 217.975,350.760 218.483,351.200 218.800 C 351.640 219.117,352.000 219.657,352.000 220.000 C 352.000 220.343,352.360 220.883,352.800 221.200 C 353.240 221.517,353.600 222.097,353.600 222.488 C 353.600 222.880,353.780 223.200,354.000 223.200 C 354.220 223.200,354.400 223.650,354.400 224.200 C 354.400 224.750,354.580 225.200,354.800 225.200 C 355.020 225.200,355.200 225.740,355.200 226.400 C 355.200 227.060,355.380 227.600,355.600 227.600 C 355.863 227.600,356.000 238.333,356.000 259.000 C 356.000 279.667,355.863 290.400,355.600 290.400 C 355.380 290.400,355.200 291.030,355.200 291.800 C 355.200 292.570,355.020 293.200,354.800 293.200 C 354.580 293.200,354.400 293.560,354.400 294.000 C 354.400 294.440,354.220 294.800,354.000 294.800 C 353.780 294.800,353.600 295.160,353.600 295.600 C 353.600 296.040,353.420 296.400,353.200 296.400 C 352.980 296.400,352.800 296.720,352.800 297.112 C 352.800 297.503,352.440 298.083,352.000 298.400 C 351.560 298.717,351.200 299.225,351.200 299.528 C 351.200 299.831,350.660 300.583,350.000 301.200 C 349.340 301.817,348.800 302.498,348.800 302.714 C 348.800 302.931,348.372 303.388,347.849 303.731 C 345.924 304.992,342.431 308.815,342.659 309.410 C 342.784 309.734,342.684 310.000,342.438 310.000 C 341.880 310.000,310.000 341.838,310.000 342.395 C 310.000 342.618,309.719 342.800,309.376 342.800 C 309.033 342.800,308.863 342.978,308.997 343.195 C 309.136 343.420,308.981 343.491,308.639 343.359 C 308.011 343.118,306.000 344.822,306.000 345.595 C 306.000 346.164,303.353 348.800,302.782 348.800 C 302.537 348.800,301.646 349.520,300.800 350.400 C 299.954 351.280,298.979 352.000,298.631 352.000 C 298.284 352.000,298.000 352.180,298.000 352.400 C 298.000 352.620,297.764 352.800,297.475 352.800 C 297.187 352.800,296.564 353.160,296.092 353.600 C 295.620 354.040,294.956 354.400,294.617 354.400 C 294.278 354.400,294.000 354.580,294.000 354.800 C 294.000 355.020,293.640 355.200,293.200 355.200 C 292.760 355.200,292.400 355.380,292.400 355.600 C 292.400 355.820,291.950 356.000,291.400 356.000 C 290.850 356.000,290.400 356.180,290.400 356.400 C 290.400 356.620,289.500 356.800,288.400 356.800 C 287.300 356.800,286.400 356.980,286.400 357.200 C 286.400 357.420,285.860 357.600,285.200 357.600 C 284.540 357.600,284.000 357.780,284.000 358.000 C 284.000 358.220,283.640 358.400,283.200 358.400 C 282.760 358.400,282.400 358.574,282.400 358.787 C 282.400 359.001,282.169 359.086,281.886 358.978 C 281.603 358.869,281.018 359.105,280.586 359.501 C 280.154 359.897,279.170 360.661,278.400 361.198 C 276.533 362.499,275.988 363.055,276.286 363.352 C 276.422 363.489,276.143 363.600,275.667 363.600 C 275.190 363.600,274.800 363.780,274.800 364.000 C 274.800 364.220,274.480 364.400,274.088 364.400 C 273.697 364.400,273.117 364.760,272.800 365.200 C 272.483 365.640,271.903 366.000,271.512 366.000 C 271.120 366.000,270.800 366.180,270.800 366.400 C 270.800 366.620,270.440 366.800,270.000 366.800 C 269.560 366.800,269.200 366.980,269.200 367.200 C 269.200 367.420,268.840 367.600,268.400 367.600 C 267.960 367.600,267.600 367.780,267.600 368.000 C 267.600 368.220,266.880 368.400,266.000 368.400 C 265.120 368.400,264.400 368.580,264.400 368.800 C 264.400 369.020,263.500 369.200,262.400 369.200 C 261.300 369.200,260.400 369.336,260.400 369.502 C 260.400 369.669,259.815 370.060,259.100 370.372 C 258.385 370.684,257.509 371.268,257.153 371.670 C 256.797 372.071,256.296 372.400,256.040 372.400 C 255.783 372.400,254.988 372.985,254.273 373.700 C 253.558 374.415,252.214 375.343,251.286 375.761 C 250.359 376.179,249.600 376.685,249.600 376.884 C 249.600 377.084,249.420 377.136,249.200 377.000 C 248.980 376.864,248.800 376.943,248.800 377.176 C 248.800 377.409,248.440 377.600,248.000 377.600 C 247.560 377.600,247.199 377.735,247.197 377.900 C 247.191 378.448,245.063 379.200,243.520 379.200 C 242.684 379.200,242.000 379.380,242.000 379.600 C 242.000 380.153,158.542 380.153,158.200 379.600 C 158.064 379.380,157.153 379.200,156.176 379.200 C 155.199 379.200,154.400 379.020,154.400 378.800 C 154.400 378.580,154.040 378.400,153.600 378.400 C 153.160 378.400,152.800 378.220,152.800 378.000 C 152.800 377.780,152.440 377.600,152.000 377.600 C 151.560 377.600,151.200 377.409,151.200 377.176 C 151.200 376.943,151.020 376.864,150.800 377.000 C 150.580 377.136,150.400 377.084,150.400 376.884 C 150.400 376.685,149.641 376.179,148.714 375.761 C 147.786 375.343,146.442 374.415,145.727 373.700 C 145.012 372.985,144.190 372.400,143.902 372.400 C 143.613 372.400,143.117 372.040,142.800 371.600 C 142.483 371.160,141.993 370.800,141.712 370.800 C 141.430 370.800,141.200 370.620,141.200 370.400 C 141.200 370.180,140.840 370.000,140.400 370.000 C 139.960 370.000,139.600 369.820,139.600 369.600 C 139.600 369.380,138.700 369.200,137.600 369.200 C 136.500 369.200,135.600 369.020,135.600 368.800 C 135.600 368.580,134.880 368.400,134.000 368.400 C 133.120 368.400,132.400 368.220,132.400 368.000 C 132.400 367.780,132.040 367.600,131.600 367.600 C 131.160 367.600,130.800 367.420,130.800 367.200 C 130.800 366.980,130.440 366.800,130.000 366.800 C 129.560 366.800,129.200 366.620,129.200 366.400 C 129.200 366.180,128.880 366.000,128.488 366.000 C 128.097 366.000,127.517 365.640,127.200 365.200 C 126.883 364.760,126.303 364.400,125.912 364.400 C 125.520 364.400,125.200 364.220,125.200 364.000 C 125.200 363.780,124.996 363.600,124.747 363.600 C 124.498 363.600,124.003 363.276,123.647 362.881 C 123.291 362.486,122.370 361.725,121.600 361.192 C 120.830 360.658,119.846 359.897,119.414 359.501 C 118.982 359.105,118.397 358.869,118.114 358.978 C 117.831 359.086,117.600 359.001,117.600 358.787 C 117.600 358.574,117.240 358.400,116.800 358.400 C 116.360 358.400,116.000 358.220,116.000 358.000 C 116.000 357.780,115.460 357.600,114.800 357.600 C 114.140 357.600,113.600 357.420,113.600 357.200 C 113.600 356.980,112.700 356.800,111.600 356.800 C 110.500 356.800,109.600 356.620,109.600 356.400 C 109.600 356.180,109.150 356.000,108.600 356.000 C 108.050 356.000,107.600 355.820,107.600 355.600 C 107.600 355.380,107.240 355.200,106.800 355.200 C 106.360 355.200,106.000 355.020,106.000 354.800 C 106.000 354.580,105.722 354.400,105.383 354.400 C 105.044 354.400,104.380 354.040,103.908 353.600 C 103.436 353.160,102.813 352.800,102.525 352.800 C 102.236 352.800,102.000 352.620,102.000 352.400 C 102.000 352.180,101.716 352.000,101.369 352.000 C 101.021 352.000,100.046 351.280,99.200 350.400 C 98.354 349.520,97.463 348.800,97.218 348.800 C 96.647 348.800,94.000 346.164,94.000 345.595 C 94.000 345.049,92.171 343.200,91.632 343.200 C 91.123 343.200,57.600 309.734,57.600 309.226 C 57.600 308.765,53.455 304.585,52.151 303.731 C 51.628 303.388,51.200 302.931,51.200 302.714 C 51.200 302.498,50.660 301.817,50.000 301.200 C 49.340 300.583,48.800 299.831,48.800 299.528 C 48.800 299.225,48.440 298.717,48.000 298.400 C 47.560 298.083,47.200 297.503,47.200 297.112 C 47.200 296.720,47.020 296.400,46.800 296.400 C 46.580 296.400,46.400 296.040,46.400 295.600 C 46.400 295.160,46.220 294.800,46.000 294.800 C 45.780 294.800,45.600 294.440,45.600 294.000 C 45.600 293.560,45.420 293.200,45.200 293.200 C 44.980 293.200,44.800 292.570,44.800 291.800 C 44.800 291.030,44.620 290.400,44.400 290.400 C 44.137 290.400,44.000 279.667,44.000 259.000 C 44.000 238.333,44.137 227.600,44.400 227.600 C 44.620 227.600,44.800 227.060,44.800 226.400 C 44.800 225.740,44.980 225.200,45.200 225.200 C 45.420 225.200,45.600 224.750,45.600 224.200 C 45.600 223.650,45.780 223.200,46.000 223.200 C 46.220 223.200,46.400 222.880,46.400 222.488 C 46.400 222.097,46.760 221.517,47.200 221.200 C 47.640 220.883,48.000 220.343,48.000 220.000 C 48.000 219.657,48.360 219.117,48.800 218.800 C 49.240 218.483,49.600 217.975,49.600 217.672 C 49.600 217.369,50.140 216.617,50.800 216.000 C 51.460 215.383,52.000 214.631,52.000 214.328 C 52.000 214.025,52.360 213.517,52.800 213.200 C 53.240 212.883,53.600 212.303,53.600 211.912 C 53.600 211.520,53.780 211.200,54.000 211.200 C 54.220 211.200,54.400 210.660,54.400 210.000 C 54.400 209.340,54.580 208.800,54.800 208.800 C 55.022 208.800,55.200 207.741,55.200 206.424 C 55.200 205.117,55.380 203.936,55.600 203.800 C 56.143 203.465,56.143 184.535,55.600 184.200 C 55.380 184.064,55.200 182.894,55.200 181.600 C 55.200 180.306,55.020 179.136,54.800 179.000 C 54.580 178.864,54.400 178.313,54.400 177.776 C 54.400 177.239,54.264 176.800,54.098 176.800 C 53.931 176.800,53.538 176.215,53.225 175.500 C 52.911 174.785,52.147 173.723,51.527 173.140 C 50.907 172.556,50.400 171.863,50.400 171.600 C 50.400 171.337,49.860 170.617,49.200 170.000 C 48.540 169.383,48.000 168.591,48.000 168.240 C 48.000 167.888,47.820 167.600,47.600 167.600 C 47.380 167.600,47.200 167.280,47.200 166.888 C 47.200 166.497,46.840 165.917,46.400 165.600 C 45.960 165.283,45.600 164.703,45.600 164.312 C 45.600 163.920,45.420 163.600,45.200 163.600 C 44.980 163.600,44.800 163.060,44.800 162.400 C 44.800 161.740,44.620 161.200,44.400 161.200 C 44.180 161.200,44.000 160.570,44.000 159.800 C 44.000 159.030,43.820 158.400,43.600 158.400 C 43.380 158.400,43.200 157.680,43.200 156.800 C 43.200 155.920,43.020 155.200,42.800 155.200 C 42.580 155.200,42.400 154.840,42.400 154.400 C 42.400 153.960,42.240 153.600,42.045 153.600 C 41.849 153.600,41.575 152.993,41.436 152.250 C 41.297 151.508,40.647 150.339,39.991 149.654 C 39.336 148.968,38.800 148.208,38.800 147.964 C 38.800 147.720,38.260 147.017,37.600 146.400 C 36.940 145.783,36.400 144.991,36.400 144.640 C 36.400 144.288,36.220 144.000,36.000 144.000 C 35.780 144.000,35.600 143.758,35.600 143.462 C 35.600 143.166,35.240 142.598,34.800 142.200 C 34.360 141.802,34.000 141.234,34.000 140.938 C 34.000 140.642,33.820 140.400,33.600 140.400 C 33.380 140.400,33.200 139.860,33.200 139.200 C 33.200 138.540,33.020 138.000,32.800 138.000 C 32.580 138.000,32.400 137.460,32.400 136.800 C 32.400 136.140,32.220 135.600,32.000 135.600 C 31.780 135.600,31.600 134.801,31.600 133.824 C 31.600 132.847,31.420 131.936,31.200 131.800 C 30.980 131.664,30.800 131.203,30.800 130.776 C 30.800 130.349,30.620 130.000,30.400 130.000 C 30.180 130.000,30.000 129.640,30.000 129.200 C 30.000 128.760,29.820 128.400,29.600 128.400 C 29.380 128.400,29.200 128.083,29.200 127.696 C 29.200 127.309,28.840 126.768,28.400 126.493 C 27.960 126.218,27.600 125.797,27.600 125.557 C 27.600 125.317,27.090 124.644,26.467 124.060 C 25.844 123.477,25.211 122.505,25.060 121.900 C 24.908 121.295,24.608 120.800,24.392 120.800 C 24.177 120.800,24.000 120.440,24.000 120.000 C 24.000 119.560,23.820 119.200,23.600 119.200 C 23.380 119.200,23.200 118.840,23.200 118.400 C 23.200 117.960,23.020 117.600,22.800 117.600 C 22.580 117.600,22.400 117.240,22.400 116.800 C 22.400 116.360,22.220 116.000,22.000 116.000 C 21.780 116.000,21.600 115.561,21.600 115.024 C 21.600 114.487,21.420 113.936,21.200 113.800 C 20.942 113.640,20.800 106.404,20.800 93.400 C 20.800 80.396,20.942 73.160,21.200 73.000 C 21.420 72.864,21.600 72.313,21.600 71.776 C 21.600 71.239,21.780 70.800,22.000 70.800 C 22.220 70.800,22.400 70.440,22.400 70.000 C 22.400 69.560,22.580 69.200,22.800 69.200 C 23.020 69.200,23.200 68.840,23.200 68.400 C 23.200 67.960,23.335 67.598,23.500 67.595 C 23.665 67.593,24.144 66.873,24.564 65.995 C 24.985 65.118,25.480 64.400,25.664 64.400 C 25.849 64.400,26.000 64.127,26.000 63.793 C 26.000 63.459,27.170 62.015,28.600 60.585 C 30.030 59.155,31.200 58.099,31.200 58.238 C 31.200 58.377,32.190 57.436,33.400 56.146 C 34.610 54.856,35.600 53.663,35.600 53.494 C 35.600 53.152,41.464 47.200,41.801 47.200 C 42.080 47.200,47.200 42.080,47.200 41.802 C 47.200 41.458,53.957 34.800,54.306 34.800 C 54.481 34.800,54.883 34.440,55.200 34.000 C 55.517 33.560,55.925 33.200,56.106 33.200 C 56.288 33.200,56.886 32.750,57.436 32.200 C 57.986 31.650,58.335 31.200,58.212 31.200 C 58.088 31.200,59.337 29.850,60.987 28.200 C 62.637 26.550,64.247 25.200,64.565 25.200 C 64.883 25.200,65.381 24.975,65.671 24.700 C 65.962 24.425,66.695 23.945,67.300 23.632 C 67.905 23.320,68.400 22.915,68.400 22.732 C 68.400 22.550,68.760 22.400,69.200 22.400 C 69.640 22.400,70.000 22.220,70.000 22.000 C 70.000 21.780,70.439 21.600,70.976 21.600 C 71.513 21.600,72.064 21.420,72.200 21.200 C 72.336 20.980,73.067 20.800,73.824 20.800 C 74.581 20.800,75.200 20.620,75.200 20.400 C 75.200 20.142,79.667 20.000,87.800 20.000 C 95.933 20.000,100.400 20.142,100.400 20.400 M137.200 108.000 C 137.200 108.220,136.660 108.400,136.000 108.400 C 135.340 108.400,134.800 108.601,134.800 108.847 C 134.800 109.096,134.447 109.201,134.000 109.084 C 133.467 108.945,133.200 109.072,133.200 109.464 C 133.200 109.872,132.953 109.976,132.400 109.800 C 131.941 109.654,131.600 109.728,131.600 109.973 C 131.600 110.208,131.280 110.400,130.888 110.400 C 130.497 110.400,129.917 110.760,129.600 111.200 C 129.283 111.640,128.785 112.000,128.494 112.000 C 127.830 112.000,125.962 113.829,126.291 114.158 C 126.424 114.291,126.237 114.400,125.874 114.400 C 125.488 114.400,125.103 114.855,124.944 115.500 C 124.794 116.105,124.341 116.891,123.936 117.247 C 123.531 117.603,123.200 118.188,123.200 118.547 C 123.200 118.906,123.020 119.200,122.800 119.200 C 122.580 119.200,122.400 119.560,122.400 120.000 C 122.400 120.440,122.220 120.800,122.000 120.800 C 121.780 120.800,121.600 121.160,121.600 121.600 C 121.600 122.040,121.420 122.400,121.200 122.400 C 120.980 122.400,120.800 122.940,120.800 123.600 C 120.800 124.260,120.620 124.800,120.400 124.800 C 120.149 124.800,120.000 127.267,120.000 131.400 C 120.000 135.533,120.149 138.000,120.400 138.000 C 120.620 138.000,120.800 138.540,120.800 139.200 C 120.800 139.860,120.980 140.400,121.200 140.400 C 121.420 140.400,121.600 140.670,121.600 141.000 C 121.600 141.330,121.780 141.600,122.000 141.600 C 122.220 141.600,122.400 141.960,122.400 142.400 C 122.400 142.840,122.580 143.200,122.800 143.200 C 123.020 143.200,123.200 143.520,123.200 143.912 C 123.200 144.303,123.560 144.883,124.000 145.200 C 124.440 145.517,124.800 146.069,124.800 146.427 C 124.800 147.190,126.103 148.800,126.720 148.800 C 126.954 148.800,127.260 149.160,127.400 149.600 C 127.540 150.040,127.962 150.400,128.339 150.400 C 128.715 150.400,129.283 150.760,129.600 151.200 C 129.917 151.640,130.497 152.000,130.888 152.000 C 131.280 152.000,131.600 152.180,131.600 152.400 C 131.600 152.620,131.960 152.800,132.400 152.800 C 132.840 152.800,133.200 152.980,133.200 153.200 C 133.200 153.420,133.560 153.600,134.000 153.600 C 134.440 153.600,134.800 153.780,134.800 154.000 C 134.800 154.220,135.340 154.400,136.000 154.400 C 136.660 154.400,137.200 154.580,137.200 154.800 C 137.200 155.051,139.667 155.200,143.800 155.200 C 147.933 155.200,150.400 155.051,150.400 154.800 C 150.400 154.580,150.940 154.400,151.600 154.400 C 152.260 154.400,152.800 154.220,152.800 154.000 C 152.800 153.780,153.160 153.600,153.600 153.600 C 154.040 153.600,154.400 153.420,154.400 153.200 C 154.400 152.980,154.760 152.800,155.200 152.800 C 155.640 152.800,156.000 152.620,156.000 152.400 C 156.000 152.180,156.320 152.000,156.712 152.000 C 157.103 152.000,157.683 151.640,158.000 151.200 C 158.317 150.760,158.722 150.400,158.899 150.400 C 159.433 150.400,162.800 146.861,162.800 146.299 C 162.800 146.012,163.160 145.517,163.600 145.200 C 164.040 144.883,164.400 144.303,164.400 143.912 C 164.400 143.520,164.580 143.200,164.800 143.200 C 165.020 143.200,165.200 142.840,165.200 142.400 C 165.200 141.960,165.380 141.600,165.600 141.600 C 165.820 141.600,166.000 141.330,166.000 141.000 C 166.000 140.670,166.180 140.400,166.400 140.400 C 166.620 140.400,166.800 139.860,166.800 139.200 C 166.800 138.540,166.980 138.000,167.200 138.000 C 167.451 138.000,167.600 135.533,167.600 131.400 C 167.600 127.267,167.451 124.800,167.200 124.800 C 166.980 124.800,166.800 124.260,166.800 123.600 C 166.800 122.940,166.620 122.400,166.400 122.400 C 166.180 122.400,166.000 122.040,166.000 121.600 C 166.000 121.160,165.820 120.800,165.600 120.800 C 165.380 120.800,165.200 120.440,165.200 120.000 C 165.200 119.560,165.020 119.200,164.800 119.200 C 164.580 119.200,164.400 118.880,164.400 118.488 C 164.400 118.097,164.040 117.517,163.600 117.200 C 163.160 116.883,162.800 116.388,162.800 116.101 C 162.800 115.523,159.426 112.000,158.873 112.000 C 158.681 112.000,158.198 111.640,157.800 111.200 C 157.402 110.760,156.834 110.400,156.538 110.400 C 156.242 110.400,156.000 110.237,156.000 110.037 C 156.000 109.838,155.640 109.769,155.200 109.884 C 154.634 110.032,154.400 109.896,154.400 109.420 C 154.400 108.928,154.184 108.815,153.600 109.000 C 153.141 109.146,152.800 109.072,152.800 108.827 C 152.800 108.592,152.260 108.400,151.600 108.400 C 150.940 108.400,150.400 108.220,150.400 108.000 C 150.400 107.749,147.933 107.600,143.800 107.600 C 139.667 107.600,137.200 107.749,137.200 108.000 M249.600 108.000 C 249.600 108.220,249.060 108.400,248.400 108.400 C 247.740 108.400,247.200 108.592,247.200 108.827 C 247.200 109.072,246.859 109.146,246.400 109.000 C 245.816 108.815,245.600 108.928,245.600 109.420 C 245.600 109.896,245.366 110.032,244.800 109.884 C 244.360 109.769,244.000 109.838,244.000 110.037 C 244.000 110.237,243.730 110.400,243.400 110.400 C 243.070 110.400,242.800 110.550,242.800 110.732 C 242.800 110.915,242.307 111.320,241.705 111.632 C 240.283 112.369,237.200 115.428,237.200 116.101 C 237.200 116.388,236.840 116.883,236.400 117.200 C 235.960 117.517,235.600 118.097,235.600 118.488 C 235.600 118.880,235.420 119.200,235.200 119.200 C 234.980 119.200,234.800 119.560,234.800 120.000 C 234.800 120.440,234.620 120.800,234.400 120.800 C 234.180 120.800,234.000 121.160,234.000 121.600 C 234.000 122.040,233.820 122.400,233.600 122.400 C 233.380 122.400,233.200 122.940,233.200 123.600 C 233.200 124.260,233.020 124.800,232.800 124.800 C 232.549 124.800,232.400 127.267,232.400 131.400 C 232.400 135.533,232.549 138.000,232.800 138.000 C 233.020 138.000,233.200 138.540,233.200 139.200 C 233.200 139.860,233.380 140.400,233.600 140.400 C 233.820 140.400,234.000 140.670,234.000 141.000 C 234.000 141.330,234.180 141.600,234.400 141.600 C 234.620 141.600,234.800 141.960,234.800 142.400 C 234.800 142.840,234.980 143.200,235.200 143.200 C 235.420 143.200,235.600 143.520,235.600 143.912 C 235.600 144.303,235.960 144.883,236.400 145.200 C 236.840 145.517,237.200 146.012,237.200 146.299 C 237.200 146.969,240.280 150.029,241.691 150.760 C 242.286 151.068,242.678 151.473,242.563 151.660 C 242.447 151.847,242.723 152.000,243.176 152.000 C 243.629 152.000,244.000 152.180,244.000 152.400 C 244.000 152.620,244.360 152.800,244.800 152.800 C 245.240 152.800,245.600 152.980,245.600 153.200 C 245.600 153.420,245.960 153.600,246.400 153.600 C 246.840 153.600,247.200 153.780,247.200 154.000 C 247.200 154.220,247.740 154.400,248.400 154.400 C 249.060 154.400,249.600 154.580,249.600 154.800 C 249.600 155.051,252.067 155.200,256.200 155.200 C 260.333 155.200,262.800 155.051,262.800 154.800 C 262.800 154.580,263.340 154.400,264.000 154.400 C 264.660 154.400,265.200 154.220,265.200 154.000 C 265.200 153.780,265.560 153.600,266.000 153.600 C 266.440 153.600,266.800 153.420,266.800 153.200 C 266.800 152.980,267.160 152.800,267.600 152.800 C 268.040 152.800,268.400 152.620,268.400 152.400 C 268.400 152.180,268.720 152.000,269.112 152.000 C 269.503 152.000,270.083 151.640,270.400 151.200 C 270.717 150.760,271.221 150.400,271.520 150.400 C 272.284 150.400,275.200 147.275,275.200 146.456 C 275.200 146.082,275.560 145.517,276.000 145.200 C 276.440 144.883,276.800 144.303,276.800 143.912 C 276.800 143.520,276.980 143.200,277.200 143.200 C 277.420 143.200,277.600 142.840,277.600 142.400 C 277.600 141.960,277.780 141.600,278.000 141.600 C 278.220 141.600,278.400 141.330,278.400 141.000 C 278.400 140.670,278.580 140.400,278.800 140.400 C 279.020 140.400,279.200 139.860,279.200 139.200 C 279.200 138.540,279.380 138.000,279.600 138.000 C 279.851 138.000,280.000 135.533,280.000 131.400 C 280.000 127.267,279.851 124.800,279.600 124.800 C 279.380 124.800,279.200 124.260,279.200 123.600 C 279.200 122.940,279.020 122.400,278.800 122.400 C 278.580 122.400,278.400 122.040,278.400 121.600 C 278.400 121.160,278.220 120.800,278.000 120.800 C 277.780 120.800,277.600 120.440,277.600 120.000 C 277.600 119.560,277.420 119.200,277.200 119.200 C 276.980 119.200,276.800 118.880,276.800 118.488 C 276.800 118.097,276.440 117.517,276.000 117.200 C 275.560 116.883,275.200 116.318,275.200 115.944 C 275.200 115.125,272.284 112.000,271.520 112.000 C 271.221 112.000,270.717 111.640,270.400 111.200 C 270.083 110.760,269.503 110.400,269.112 110.400 C 268.720 110.400,268.400 110.208,268.400 109.973 C 268.400 109.728,268.059 109.654,267.600 109.800 C 267.047 109.976,266.800 109.872,266.800 109.464 C 266.800 109.072,266.533 108.945,266.000 109.084 C 265.553 109.201,265.200 109.096,265.200 108.847 C 265.200 108.601,264.660 108.400,264.000 108.400 C 263.340 108.400,262.800 108.220,262.800 108.000 C 262.800 107.749,260.333 107.600,256.200 107.600 C 252.067 107.600,249.600 107.749,249.600 108.000 M148.000 112.400 C 148.000 112.620,148.720 112.800,149.600 112.800 C 150.480 112.800,151.200 112.980,151.200 113.200 C 151.200 113.420,151.560 113.600,152.000 113.600 C 152.440 113.600,152.800 113.780,152.800 114.000 C 152.800 114.220,153.120 114.400,153.512 114.400 C 153.903 114.400,154.483 114.760,154.800 115.200 C 155.117 115.640,155.613 116.000,155.902 116.000 C 156.669 116.000,159.284 118.740,158.983 119.228 C 158.842 119.456,159.103 119.969,159.563 120.368 C 160.023 120.767,160.400 121.388,160.400 121.747 C 160.400 122.106,160.580 122.400,160.800 122.400 C 161.020 122.400,161.200 122.760,161.200 123.200 C 161.200 123.640,161.380 124.000,161.600 124.000 C 161.820 124.000,162.000 124.810,162.000 125.800 C 162.000 126.790,162.180 127.600,162.400 127.600 C 162.633 127.600,162.800 128.933,162.800 130.800 C 162.800 132.667,162.633 134.000,162.400 134.000 C 162.178 134.000,162.000 135.067,162.000 136.400 C 162.000 137.733,161.822 138.800,161.600 138.800 C 161.380 138.800,161.200 139.160,161.200 139.600 C 161.200 140.040,161.034 140.400,160.832 140.400 C 160.629 140.400,160.345 140.940,160.200 141.600 C 160.052 142.274,159.677 142.800,159.345 142.800 C 159.019 142.800,158.862 142.977,158.996 143.194 C 159.288 143.666,156.649 146.400,155.902 146.400 C 155.613 146.400,155.117 146.760,154.800 147.200 C 154.483 147.640,153.903 148.000,153.512 148.000 C 153.120 148.000,152.800 148.180,152.800 148.400 C 152.800 148.620,152.440 148.800,152.000 148.800 C 151.560 148.800,151.200 148.980,151.200 149.200 C 151.200 149.420,150.480 149.600,149.600 149.600 C 148.720 149.600,148.000 149.780,148.000 150.000 C 148.000 150.239,146.467 150.400,144.200 150.400 C 141.933 150.400,140.400 150.239,140.400 150.000 C 140.400 149.780,139.500 149.600,138.400 149.600 C 137.300 149.600,136.400 149.420,136.400 149.200 C 136.400 148.980,136.040 148.800,135.600 148.800 C 135.160 148.800,134.800 148.620,134.800 148.400 C 134.800 148.180,134.480 148.000,134.088 148.000 C 133.697 148.000,133.117 147.640,132.800 147.200 C 132.483 146.760,131.987 146.400,131.698 146.400 C 130.957 146.400,128.400 143.756,128.400 142.990 C 128.400 142.639,128.236 142.454,128.035 142.579 C 127.834 142.703,127.430 142.264,127.137 141.602 C 126.844 140.941,126.469 140.400,126.302 140.400 C 126.136 140.400,126.000 140.055,126.000 139.633 C 126.000 139.212,125.779 138.793,125.508 138.703 C 124.795 138.465,124.787 124.338,125.500 124.100 C 125.775 124.008,126.000 123.588,126.000 123.167 C 126.000 122.745,126.180 122.400,126.400 122.400 C 126.620 122.400,126.800 122.080,126.800 121.688 C 126.800 121.297,127.160 120.717,127.600 120.400 C 128.040 120.083,128.400 119.587,128.400 119.298 C 128.400 119.010,129.024 118.149,129.787 117.387 C 130.549 116.624,131.410 116.000,131.698 116.000 C 131.987 116.000,132.483 115.640,132.800 115.200 C 133.117 114.760,133.697 114.400,134.088 114.400 C 134.480 114.400,134.800 114.220,134.800 114.000 C 134.800 113.780,135.160 113.600,135.600 113.600 C 136.040 113.600,136.400 113.420,136.400 113.200 C 136.400 112.980,137.120 112.800,138.000 112.800 C 138.880 112.800,139.600 112.620,139.600 112.400 C 139.600 112.159,141.267 112.000,143.800 112.000 C 146.333 112.000,148.000 112.159,148.000 112.400 M260.400 112.400 C 260.400 112.620,261.120 112.800,262.000 112.800 C 262.880 112.800,263.600 112.980,263.600 113.200 C 263.600 113.420,263.960 113.600,264.400 113.600 C 264.840 113.600,265.200 113.780,265.200 114.000 C 265.200 114.220,265.520 114.400,265.912 114.400 C 266.303 114.400,266.883 114.760,267.200 115.200 C 267.517 115.640,268.013 116.000,268.302 116.000 C 268.984 116.000,271.600 118.616,271.600 119.298 C 271.600 119.587,271.960 120.083,272.400 120.400 C 272.840 120.717,273.200 121.297,273.200 121.688 C 273.200 122.080,273.380 122.400,273.600 122.400 C 273.820 122.400,274.000 122.745,274.000 123.167 C 274.000 123.588,274.225 124.008,274.500 124.100 C 275.191 124.331,275.160 138.480,274.468 138.711 C 274.211 138.796,274.000 139.212,274.000 139.633 C 274.000 140.055,273.864 140.400,273.698 140.400 C 273.531 140.400,273.156 140.941,272.863 141.602 C 272.570 142.264,272.166 142.703,271.965 142.579 C 271.764 142.454,271.600 142.639,271.600 142.990 C 271.600 143.756,269.043 146.400,268.302 146.400 C 268.013 146.400,267.517 146.760,267.200 147.200 C 266.883 147.640,266.303 148.000,265.912 148.000 C 265.520 148.000,265.200 148.180,265.200 148.400 C 265.200 148.620,264.840 148.800,264.400 148.800 C 263.960 148.800,263.600 148.980,263.600 149.200 C 263.600 149.420,262.880 149.600,262.000 149.600 C 261.120 149.600,260.400 149.780,260.400 150.000 C 260.400 150.239,258.867 150.400,256.600 150.400 C 254.333 150.400,252.800 150.239,252.800 150.000 C 252.800 149.780,251.900 149.600,250.800 149.600 C 249.700 149.600,248.800 149.420,248.800 149.200 C 248.800 148.980,248.440 148.800,248.000 148.800 C 247.560 148.800,247.200 148.620,247.200 148.400 C 247.200 148.180,246.880 148.000,246.488 148.000 C 246.097 148.000,245.517 147.640,245.200 147.200 C 244.883 146.760,244.375 146.400,244.072 146.400 C 243.468 146.400,241.200 144.142,241.200 143.541 C 241.200 143.335,240.840 142.780,240.400 142.308 C 239.960 141.836,239.600 141.213,239.600 140.925 C 239.600 140.636,239.420 140.400,239.200 140.400 C 238.980 140.400,238.800 140.040,238.800 139.600 C 238.800 139.160,238.620 138.800,238.400 138.800 C 238.180 138.800,238.000 137.900,238.000 136.800 C 238.000 135.700,237.820 134.800,237.600 134.800 C 237.363 134.800,237.200 133.333,237.200 131.200 C 237.200 129.067,237.363 127.600,237.600 127.600 C 237.820 127.600,238.000 126.790,238.000 125.800 C 238.000 124.810,238.180 124.000,238.400 124.000 C 238.620 124.000,238.800 123.640,238.800 123.200 C 238.800 122.760,238.980 122.400,239.200 122.400 C 239.420 122.400,239.600 122.080,239.600 121.688 C 239.600 121.297,239.960 120.717,240.400 120.400 C 240.840 120.083,241.200 119.522,241.200 119.154 C 241.200 118.327,243.319 116.000,244.072 116.000 C 244.375 116.000,244.883 115.640,245.200 115.200 C 245.517 114.760,246.097 114.400,246.488 114.400 C 246.880 114.400,247.200 114.220,247.200 114.000 C 247.200 113.780,247.560 113.600,248.000 113.600 C 248.440 113.600,248.800 113.420,248.800 113.200 C 248.800 112.980,249.520 112.800,250.400 112.800 C 251.280 112.800,252.000 112.620,252.000 112.400 C 252.000 112.159,253.667 112.000,256.200 112.000 C 258.733 112.000,260.400 112.159,260.400 112.400 M195.600 193.700 C 195.600 193.865,195.240 194.000,194.800 194.000 C 194.267 194.000,194.000 194.267,194.000 194.800 C 194.000 195.341,193.733 195.600,193.176 195.600 C 192.723 195.600,192.464 195.780,192.600 196.000 C 192.743 196.231,192.367 196.400,191.712 196.400 C 191.035 196.400,190.344 196.723,190.000 197.200 C 189.683 197.640,189.180 198.000,188.883 198.000 C 188.151 198.000,187.200 199.000,187.200 199.771 C 187.200 200.133,186.861 200.400,186.400 200.400 C 185.960 200.400,185.600 200.580,185.600 200.800 C 185.600 201.020,185.280 201.200,184.888 201.200 C 184.497 201.200,183.917 201.560,183.600 202.000 C 183.261 202.470,182.565 202.800,181.912 202.800 C 181.067 202.800,180.800 202.992,180.800 203.600 C 180.800 204.133,180.533 204.400,180.000 204.400 C 179.560 204.400,179.200 204.580,179.200 204.800 C 179.200 205.020,178.210 205.200,177.000 205.200 C 175.790 205.200,174.800 205.380,174.800 205.600 C 174.800 205.820,173.900 206.000,172.800 206.000 C 171.700 206.000,170.800 206.180,170.800 206.400 C 170.800 206.620,170.440 206.800,170.000 206.800 C 169.467 206.800,169.200 207.067,169.200 207.600 C 169.200 208.222,168.933 208.400,168.000 208.400 C 167.340 208.400,166.800 208.601,166.800 208.847 C 166.800 209.096,166.447 209.201,166.000 209.084 C 165.457 208.942,165.200 209.072,165.200 209.487 C 165.200 209.946,164.916 210.043,164.071 209.874 C 163.238 209.708,162.795 209.852,162.383 210.424 C 162.075 210.851,161.503 211.200,161.112 211.200 C 160.667 211.200,160.400 211.500,160.400 212.000 C 160.400 212.524,160.133 212.800,159.627 212.800 C 159.202 212.800,158.740 213.160,158.600 213.600 C 158.460 214.040,158.075 214.400,157.744 214.400 C 156.959 214.400,156.000 215.374,156.000 216.171 C 156.000 216.533,155.661 216.800,155.200 216.800 C 154.760 216.800,154.400 216.980,154.400 217.200 C 154.400 217.420,154.040 217.600,153.600 217.600 C 153.160 217.600,152.800 217.780,152.800 218.000 C 152.800 218.220,152.080 218.400,151.200 218.400 C 150.320 218.400,149.600 218.580,149.600 218.800 C 149.600 219.020,148.880 219.200,148.000 219.200 C 147.120 219.200,146.400 219.380,146.400 219.600 C 146.400 219.831,145.133 220.000,143.400 220.000 C 140.667 220.000,140.400 220.071,140.400 220.800 C 140.400 221.333,140.133 221.600,139.600 221.600 C 139.160 221.600,138.800 221.780,138.800 222.000 C 138.800 222.220,138.260 222.400,137.600 222.400 C 136.940 222.400,136.400 222.580,136.400 222.800 C 136.400 223.020,136.117 223.200,135.771 223.200 C 135.053 223.200,134.000 224.134,134.000 224.771 C 134.000 225.007,133.460 225.200,132.800 225.200 C 131.980 225.200,131.600 225.397,131.600 225.824 C 131.600 226.167,131.453 226.356,131.273 226.245 C 131.093 226.134,130.693 226.393,130.385 226.821 C 130.076 227.250,129.400 227.600,128.883 227.600 C 127.803 227.600,126.800 228.453,126.800 229.371 C 126.800 229.717,126.609 230.000,126.376 230.000 C 126.143 230.000,126.064 230.180,126.200 230.400 C 126.336 230.620,126.077 230.800,125.624 230.800 C 125.171 230.800,124.800 230.980,124.800 231.200 C 124.800 231.420,124.517 231.600,124.171 231.600 C 123.826 231.600,123.286 231.857,122.971 232.171 C 122.657 232.486,122.400 233.026,122.400 233.371 C 122.400 233.717,122.220 234.000,122.000 234.000 C 121.780 234.000,121.600 234.320,121.600 234.712 C 121.600 235.103,121.240 235.683,120.800 236.000 C 120.330 236.339,120.000 237.035,120.000 237.688 C 120.000 238.533,119.808 238.800,119.200 238.800 C 118.578 238.800,118.400 239.067,118.400 240.000 C 118.400 240.660,118.220 241.200,118.000 241.200 C 117.742 241.200,117.600 245.600,117.600 253.600 C 117.600 261.600,117.742 266.000,118.000 266.000 C 118.222 266.000,118.400 267.067,118.400 268.400 C 118.400 270.533,118.489 270.800,119.200 270.800 C 119.822 270.800,120.000 271.067,120.000 272.000 C 120.000 272.660,120.180 273.200,120.400 273.200 C 120.620 273.200,120.800 273.548,120.800 273.973 C 120.800 274.398,121.160 274.860,121.600 275.000 C 122.040 275.140,122.400 275.525,122.400 275.856 C 122.400 276.641,123.374 277.600,124.171 277.600 C 124.526 277.600,124.800 277.937,124.800 278.371 C 124.800 278.796,125.070 279.413,125.400 279.743 C 125.730 280.073,126.000 280.626,126.000 280.971 C 126.000 281.317,126.258 281.600,126.573 281.600 C 126.888 281.600,127.260 281.960,127.400 282.400 C 127.540 282.840,127.925 283.200,128.256 283.200 C 128.960 283.200,130.000 284.147,130.000 284.790 C 130.000 285.364,131.828 287.200,132.400 287.200 C 132.985 287.200,134.800 289.042,134.800 289.635 C 134.800 290.255,136.367 291.600,137.090 291.600 C 137.764 291.600,138.800 292.560,138.800 293.185 C 138.800 293.863,141.491 296.400,142.210 296.400 C 142.561 296.400,142.736 296.580,142.600 296.800 C 142.464 297.020,142.653 297.200,143.019 297.200 C 143.414 297.200,143.601 297.420,143.478 297.740 C 143.241 298.358,144.851 300.400,145.575 300.400 C 146.179 300.400,147.200 301.396,147.200 301.985 C 147.200 302.651,149.885 305.200,150.587 305.200 C 150.933 305.200,151.200 305.548,151.200 306.000 C 151.200 306.500,151.467 306.800,151.912 306.800 C 152.303 306.800,152.876 307.150,153.185 307.579 C 153.493 308.007,153.893 308.266,154.073 308.155 C 154.253 308.044,154.400 308.143,154.400 308.376 C 154.400 308.609,154.940 308.800,155.600 308.800 C 156.260 308.800,156.800 308.980,156.800 309.200 C 156.800 309.420,157.160 309.600,157.600 309.600 C 158.133 309.600,158.400 309.867,158.400 310.400 C 158.400 311.103,158.667 311.200,160.600 311.200 C 161.810 311.200,162.800 311.380,162.800 311.600 C 162.800 311.820,163.520 312.000,164.400 312.000 C 165.280 312.000,166.000 312.180,166.000 312.400 C 166.000 312.620,166.360 312.800,166.800 312.800 C 167.240 312.800,167.600 312.980,167.600 313.200 C 167.600 313.420,168.140 313.600,168.800 313.600 C 169.616 313.600,170.000 313.798,170.000 314.218 C 170.000 315.190,171.859 316.800,172.982 316.800 L 174.000 316.800 174.000 334.000 L 174.000 351.200 200.000 351.200 L 226.000 351.200 226.000 334.000 L 226.000 316.800 227.018 316.800 C 228.141 316.800,230.000 315.190,230.000 314.218 C 230.000 313.798,230.384 313.600,231.200 313.600 C 231.860 313.600,232.400 313.420,232.400 313.200 C 232.400 312.980,232.760 312.800,233.200 312.800 C 233.640 312.800,234.000 312.620,234.000 312.400 C 234.000 312.180,234.720 312.000,235.600 312.000 C 236.480 312.000,237.200 311.820,237.200 311.600 C 237.200 311.380,238.190 311.200,239.400 311.200 C 241.333 311.200,241.600 311.103,241.600 310.400 C 241.600 309.867,241.867 309.600,242.400 309.600 C 242.840 309.600,243.200 309.420,243.200 309.200 C 243.200 308.980,243.732 308.800,244.382 308.800 C 245.109 308.800,245.948 308.415,246.564 307.800 C 247.114 307.250,247.842 306.800,248.182 306.800 C 248.533 306.800,248.800 306.455,248.800 306.000 C 248.800 305.548,249.067 305.200,249.413 305.200 C 250.115 305.200,252.800 302.651,252.800 301.985 C 252.800 301.412,253.815 300.400,254.390 300.400 C 254.969 300.400,256.800 298.569,256.800 297.990 C 256.800 297.518,257.774 296.400,258.185 296.400 C 258.613 296.400,261.200 293.642,261.200 293.185 C 261.200 292.560,262.236 291.600,262.910 291.600 C 263.633 291.600,265.200 290.255,265.200 289.635 C 265.200 289.042,267.015 287.200,267.600 287.200 C 268.172 287.200,270.000 285.364,270.000 284.790 C 270.000 284.213,271.013 283.200,271.590 283.200 C 272.169 283.200,274.000 281.369,274.000 280.790 C 274.000 280.544,274.270 280.073,274.600 279.743 C 274.930 279.413,275.200 278.796,275.200 278.371 C 275.200 277.937,275.474 277.600,275.829 277.600 C 276.596 277.600,277.600 276.651,277.600 275.925 C 277.600 275.632,277.960 275.168,278.400 274.893 C 278.840 274.618,279.200 274.125,279.200 273.797 C 279.200 273.468,279.380 273.200,279.600 273.200 C 279.820 273.200,280.000 272.660,280.000 272.000 C 280.000 271.067,280.178 270.800,280.800 270.800 C 281.511 270.800,281.600 270.533,281.600 268.400 C 281.600 267.067,281.778 266.000,282.000 266.000 C 282.258 266.000,282.400 261.600,282.400 253.600 C 282.400 245.600,282.258 241.200,282.000 241.200 C 281.780 241.200,281.600 240.660,281.600 240.000 C 281.600 239.067,281.422 238.800,280.800 238.800 C 280.192 238.800,280.000 238.533,280.000 237.688 C 280.000 237.035,279.670 236.339,279.200 236.000 C 278.760 235.683,278.400 235.103,278.400 234.712 C 278.400 234.320,278.220 234.000,278.000 234.000 C 277.780 234.000,277.600 233.717,277.600 233.371 C 277.600 232.563,276.637 231.600,275.829 231.600 C 275.483 231.600,275.200 231.420,275.200 231.200 C 275.200 230.980,275.007 230.800,274.771 230.800 C 274.205 230.800,273.200 229.777,273.200 229.200 C 273.200 228.435,272.112 227.600,271.117 227.600 C 270.600 227.600,269.924 227.250,269.615 226.821 C 269.307 226.393,268.907 226.134,268.727 226.245 C 268.547 226.356,268.400 226.167,268.400 225.824 C 268.400 225.397,268.020 225.200,267.200 225.200 C 266.540 225.200,266.000 225.007,266.000 224.771 C 266.000 224.134,264.947 223.200,264.229 223.200 C 263.883 223.200,263.600 223.020,263.600 222.800 C 263.600 222.580,263.060 222.400,262.400 222.400 C 261.740 222.400,261.200 222.220,261.200 222.000 C 261.200 221.780,260.840 221.600,260.400 221.600 C 259.867 221.600,259.600 221.333,259.600 220.800 C 259.600 220.071,259.333 220.000,256.600 220.000 C 254.867 220.000,253.600 219.831,253.600 219.600 C 253.600 219.380,252.880 219.200,252.000 219.200 C 251.120 219.200,250.400 219.020,250.400 218.800 C 250.400 218.580,249.680 218.400,248.800 218.400 C 247.920 218.400,247.200 218.220,247.200 218.000 C 247.200 217.780,246.840 217.600,246.400 217.600 C 245.960 217.600,245.600 217.420,245.600 217.200 C 245.600 216.980,245.240 216.800,244.800 216.800 C 244.339 216.800,244.000 216.533,244.000 216.171 C 244.000 215.374,243.041 214.400,242.256 214.400 C 241.925 214.400,241.540 214.040,241.400 213.600 C 241.260 213.160,240.798 212.800,240.373 212.800 C 239.867 212.800,239.600 212.524,239.600 212.000 C 239.600 211.500,239.333 211.200,238.888 211.200 C 238.497 211.200,237.925 210.851,237.617 210.424 C 237.205 209.852,236.762 209.708,235.929 209.874 C 235.084 210.043,234.800 209.946,234.800 209.487 C 234.800 209.072,234.543 208.942,234.000 209.084 C 233.553 209.201,233.200 209.096,233.200 208.847 C 233.200 208.601,232.660 208.400,232.000 208.400 C 231.067 208.400,230.800 208.222,230.800 207.600 C 230.800 207.067,230.533 206.800,230.000 206.800 C 229.560 206.800,229.200 206.620,229.200 206.400 C 229.200 206.180,228.300 206.000,227.200 206.000 C 226.100 206.000,225.200 205.820,225.200 205.600 C 225.200 205.380,224.210 205.200,223.000 205.200 C 221.790 205.200,220.800 205.020,220.800 204.800 C 220.800 204.580,220.440 204.400,220.000 204.400 C 219.467 204.400,219.200 204.133,219.200 203.600 C 219.200 202.992,218.933 202.800,218.088 202.800 C 217.435 202.800,216.739 202.470,216.400 202.000 C 216.083 201.560,215.503 201.200,215.112 201.200 C 214.720 201.200,214.400 201.020,214.400 200.800 C 214.400 200.580,214.040 200.400,213.600 200.400 C 213.139 200.400,212.800 200.133,212.800 199.771 C 212.800 199.000,211.849 198.000,211.117 198.000 C 210.820 198.000,210.317 197.640,210.000 197.200 C 209.683 196.760,209.013 196.400,208.512 196.400 C 208.010 196.400,207.600 196.220,207.600 196.000 C 207.600 195.780,207.240 195.600,206.800 195.600 C 206.267 195.600,206.000 195.333,206.000 194.800 C 206.000 194.267,205.733 194.000,205.200 194.000 C 204.760 194.000,204.400 193.865,204.400 193.700 C 204.400 193.535,202.420 193.400,200.000 193.400 C 197.580 193.400,195.600 193.535,195.600 193.700 M204.000 206.000 C 204.317 206.440,204.897 206.800,205.288 206.800 C 205.680 206.800,206.000 206.980,206.000 207.200 C 206.000 207.420,206.521 207.600,207.157 207.600 C 207.817 207.600,208.413 207.858,208.545 208.200 C 208.671 208.530,209.051 208.800,209.387 208.800 C 209.724 208.800,210.000 208.952,210.000 209.139 C 210.000 209.896,211.556 211.200,212.459 211.200 C 212.989 211.200,213.683 211.560,214.000 212.000 C 214.317 212.440,214.857 212.800,215.200 212.800 C 215.543 212.800,216.083 213.160,216.400 213.600 C 216.717 214.040,217.297 214.400,217.688 214.400 C 218.080 214.400,218.400 214.580,218.400 214.800 C 218.400 215.020,219.300 215.200,220.400 215.200 C 221.500 215.200,222.400 215.380,222.400 215.600 C 222.400 215.820,223.390 216.000,224.600 216.000 C 226.676 216.000,227.021 216.200,226.847 217.300 C 226.821 217.465,227.340 217.600,228.000 217.600 C 228.660 217.600,229.200 217.780,229.200 218.000 C 229.200 218.220,229.560 218.400,230.000 218.400 C 230.440 218.400,230.800 218.580,230.800 218.800 C 230.800 219.020,231.160 219.200,231.600 219.200 C 232.040 219.200,232.400 219.380,232.400 219.600 C 232.400 219.820,232.720 220.000,233.112 220.000 C 233.503 220.000,234.083 220.360,234.400 220.800 C 234.717 221.240,235.257 221.600,235.600 221.600 C 235.943 221.600,236.483 221.960,236.800 222.400 C 237.117 222.840,237.697 223.200,238.088 223.200 C 238.533 223.200,238.800 223.500,238.800 224.000 C 238.800 224.494,239.067 224.801,239.500 224.802 C 239.885 224.804,240.716 225.074,241.346 225.402 C 241.976 225.731,242.831 226.000,243.246 226.000 C 243.661 226.000,244.000 226.180,244.000 226.400 C 244.000 226.620,244.720 226.800,245.600 226.800 C 246.480 226.800,247.200 226.980,247.200 227.200 C 247.200 227.427,248.371 227.600,249.912 227.600 C 252.165 227.600,252.721 227.735,253.200 228.400 C 253.539 228.870,254.235 229.200,254.888 229.200 C 255.500 229.200,256.000 229.380,256.000 229.600 C 256.000 229.820,256.278 230.000,256.618 230.000 C 257.346 230.000,259.262 231.805,258.909 232.158 C 258.776 232.291,259.017 232.400,259.445 232.400 C 259.873 232.400,260.483 232.760,260.800 233.200 C 261.117 233.640,261.799 234.000,262.314 234.000 C 262.913 234.000,263.956 234.723,265.200 236.000 C 266.271 237.100,267.348 238.000,267.592 238.000 C 268.242 238.000,270.000 239.865,270.000 240.555 C 270.000 240.880,270.360 241.260,270.800 241.400 C 271.240 241.540,271.600 242.002,271.600 242.427 C 271.600 242.852,271.780 243.200,272.000 243.200 C 272.220 243.200,272.400 243.560,272.400 244.000 C 272.400 244.440,272.580 244.800,272.800 244.800 C 273.057 244.800,273.200 248.600,273.200 255.400 C 273.200 262.200,273.057 266.000,272.800 266.000 C 272.580 266.000,272.400 266.720,272.400 267.600 C 272.400 268.480,272.220 269.200,272.000 269.200 C 271.780 269.200,271.600 269.740,271.600 270.400 C 271.600 271.060,271.420 271.600,271.200 271.600 C 270.980 271.600,270.800 271.888,270.800 272.240 C 270.800 273.102,268.502 275.200,267.558 275.200 C 267.022 275.200,266.800 275.485,266.800 276.173 C 266.800 276.795,266.511 277.238,266.000 277.400 C 265.560 277.540,265.200 277.925,265.200 278.256 C 265.200 278.965,264.251 280.000,263.600 280.000 C 263.010 280.000,262.000 281.010,262.000 281.600 C 262.000 282.190,260.990 283.200,260.400 283.200 C 259.786 283.200,258.774 284.241,259.086 284.552 C 259.222 284.689,259.123 284.800,258.867 284.800 C 258.610 284.800,258.400 285.160,258.400 285.600 C 258.400 286.133,258.133 286.400,257.600 286.400 C 257.160 286.400,256.800 286.580,256.800 286.800 C 256.800 287.020,256.517 287.200,256.171 287.200 C 255.434 287.200,254.400 288.140,254.400 288.811 C 254.400 289.453,252.048 291.600,251.345 291.600 C 251.032 291.600,250.654 291.915,250.507 292.299 C 250.156 293.214,248.559 294.800,247.990 294.800 C 247.413 294.800,246.400 295.813,246.400 296.390 C 246.400 297.067,244.524 298.800,243.791 298.800 C 243.328 298.800,243.218 299.026,243.400 299.600 C 243.569 300.134,243.472 300.400,243.107 300.400 C 242.350 300.400,240.407 301.334,240.403 301.700 C 240.401 301.865,240.040 302.000,239.600 302.000 C 239.160 302.000,238.800 302.180,238.800 302.400 C 238.800 302.620,238.440 302.800,238.000 302.800 C 237.467 302.800,237.200 303.067,237.200 303.600 C 237.200 304.311,236.933 304.400,234.800 304.400 C 233.467 304.400,232.400 304.578,232.400 304.800 C 232.400 305.020,231.680 305.200,230.800 305.200 C 229.920 305.200,229.200 305.380,229.200 305.600 C 229.200 305.820,228.553 306.000,227.763 306.000 C 226.662 306.000,226.276 306.187,226.116 306.800 C 226.001 307.240,225.760 307.600,225.580 307.600 C 225.401 307.600,225.134 307.976,224.988 308.437 C 224.815 308.982,224.480 309.210,224.024 309.090 C 223.623 308.986,223.127 309.226,222.859 309.654 C 222.603 310.064,222.035 310.400,221.597 310.400 C 221.158 310.400,220.800 310.580,220.800 310.800 C 220.800 311.020,220.524 311.200,220.187 311.200 C 219.849 311.200,218.949 311.824,218.187 312.587 L 216.800 313.973 216.800 327.787 L 216.800 341.600 200.000 341.600 L 183.200 341.600 183.200 327.787 L 183.200 313.973 181.813 312.587 C 181.051 311.824,180.151 311.200,179.813 311.200 C 179.476 311.200,179.200 311.020,179.200 310.800 C 179.200 310.580,178.842 310.400,178.403 310.400 C 177.965 310.400,177.393 310.058,177.132 309.640 C 176.871 309.222,176.419 308.971,176.128 309.083 C 175.491 309.327,174.032 307.683,174.013 306.700 C 174.003 306.152,173.652 306.000,172.400 306.000 C 171.520 306.000,170.800 305.820,170.800 305.600 C 170.800 305.380,170.080 305.200,169.200 305.200 C 168.320 305.200,167.600 305.020,167.600 304.800 C 167.600 304.578,166.533 304.400,165.200 304.400 C 163.067 304.400,162.800 304.311,162.800 303.600 C 162.800 303.067,162.533 302.800,162.000 302.800 C 161.560 302.800,161.200 302.620,161.200 302.400 C 161.200 302.180,160.840 302.000,160.400 302.000 C 159.960 302.000,159.600 301.820,159.600 301.600 C 159.600 301.380,159.330 301.200,159.000 301.200 C 158.670 301.200,158.400 301.020,158.400 300.800 C 158.400 300.580,158.040 300.400,157.600 300.400 C 157.067 300.400,156.800 300.133,156.800 299.600 C 156.800 299.145,156.533 298.800,156.182 298.800 C 155.470 298.800,153.600 297.054,153.600 296.390 C 153.600 295.813,152.587 294.800,152.010 294.800 C 151.441 294.800,149.844 293.214,149.493 292.299 C 149.346 291.915,148.968 291.600,148.655 291.600 C 147.952 291.600,145.600 289.453,145.600 288.811 C 145.600 288.140,144.566 287.200,143.829 287.200 C 143.483 287.200,143.200 287.020,143.200 286.800 C 143.200 286.580,142.840 286.400,142.400 286.400 C 141.889 286.400,141.600 286.133,141.600 285.661 C 141.600 284.795,140.320 283.200,139.625 283.200 C 139.014 283.200,138.000 282.201,138.000 281.600 C 138.000 281.010,136.990 280.000,136.400 280.000 C 135.749 280.000,134.800 278.965,134.800 278.256 C 134.800 277.925,134.440 277.540,134.000 277.400 C 133.489 277.238,133.200 276.795,133.200 276.173 C 133.200 275.485,132.978 275.200,132.442 275.200 C 131.498 275.200,129.200 273.102,129.200 272.240 C 129.200 271.888,129.020 271.600,128.800 271.600 C 128.580 271.600,128.400 271.060,128.400 270.400 C 128.400 269.740,128.220 269.200,128.000 269.200 C 127.780 269.200,127.600 268.480,127.600 267.600 C 127.600 266.720,127.420 266.000,127.200 266.000 C 126.943 266.000,126.800 262.200,126.800 255.400 C 126.800 248.600,126.943 244.800,127.200 244.800 C 127.420 244.800,127.600 244.440,127.600 244.000 C 127.600 243.560,127.780 243.200,128.000 243.200 C 128.220 243.200,128.400 242.852,128.400 242.427 C 128.400 242.002,128.760 241.540,129.200 241.400 C 129.640 241.260,130.000 240.880,130.000 240.555 C 130.000 239.865,131.758 238.000,132.408 238.000 C 132.652 238.000,133.729 237.100,134.800 236.000 C 136.044 234.723,137.087 234.000,137.686 234.000 C 138.201 234.000,138.883 233.640,139.200 233.200 C 139.517 232.760,140.097 232.400,140.488 232.400 C 140.880 232.400,141.200 232.248,141.200 232.061 C 141.200 231.430,142.690 230.000,143.347 230.000 C 143.706 230.000,144.000 229.820,144.000 229.600 C 144.000 229.380,144.500 229.200,145.112 229.200 C 145.765 229.200,146.461 228.870,146.800 228.400 C 147.279 227.735,147.835 227.600,150.088 227.600 C 151.629 227.600,152.800 227.427,152.800 227.200 C 152.800 226.980,153.520 226.800,154.400 226.800 C 155.280 226.800,156.000 226.620,156.000 226.400 C 156.000 226.180,156.540 226.000,157.200 226.000 C 157.860 226.000,158.400 225.834,158.400 225.632 C 158.400 225.429,158.962 225.140,159.649 224.989 C 160.388 224.827,160.978 224.406,161.095 223.958 C 161.204 223.541,161.593 223.200,161.958 223.200 C 162.324 223.200,162.883 222.840,163.200 222.400 C 163.517 221.960,164.057 221.600,164.400 221.600 C 164.743 221.600,165.283 221.240,165.600 220.800 C 165.917 220.360,166.497 220.000,166.888 220.000 C 167.280 220.000,167.600 219.820,167.600 219.600 C 167.600 219.380,167.960 219.200,168.400 219.200 C 168.840 219.200,169.200 219.020,169.200 218.800 C 169.200 218.580,169.560 218.400,170.000 218.400 C 170.440 218.400,170.800 218.220,170.800 218.000 C 170.800 217.780,171.340 217.600,172.000 217.600 C 172.933 217.600,173.200 217.422,173.200 216.800 C 173.200 216.097,173.467 216.000,175.400 216.000 C 176.610 216.000,177.600 215.820,177.600 215.600 C 177.600 215.380,178.500 215.200,179.600 215.200 C 180.700 215.200,181.600 215.020,181.600 214.800 C 181.600 214.580,181.920 214.400,182.312 214.400 C 182.703 214.400,183.283 214.040,183.600 213.600 C 183.917 213.160,184.457 212.800,184.800 212.800 C 185.143 212.800,185.683 212.440,186.000 212.000 C 186.317 211.560,186.997 211.200,187.511 211.200 C 188.090 211.200,189.123 210.514,190.221 209.400 C 191.386 208.218,192.339 207.600,192.998 207.600 C 193.549 207.600,194.000 207.420,194.000 207.200 C 194.000 206.980,194.320 206.800,194.712 206.800 C 195.103 206.800,195.683 206.440,196.000 206.000 C 196.499 205.307,197.035 205.200,200.000 205.200 C 202.965 205.200,203.501 205.307,204.000 206.000 " stroke="none" fill="#247c3c" fill-rule="evenodd"></path><path id="path1" d="M43.378 194.200 C 43.379 201.240,43.433 204.064,43.499 200.475 C 43.566 196.886,43.566 191.126,43.499 187.675 C 43.433 184.224,43.378 187.160,43.378 194.200 M198.100 193.494 C 199.145 193.576,200.855 193.576,201.900 193.494 C 202.945 193.412,202.090 193.344,200.000 193.344 C 197.910 193.344,197.055 193.412,198.100 193.494 " stroke="none" fill="#287c3c" fill-rule="evenodd"></path><path id="path2" d="M43.378 194.200 C 43.379 201.240,43.433 204.064,43.499 200.475 C 43.566 196.886,43.566 191.126,43.499 187.675 C 43.433 184.224,43.378 187.160,43.378 194.200 M198.100 193.494 C 199.145 193.576,200.855 193.576,201.900 193.494 C 202.945 193.412,202.090 193.344,200.000 193.344 C 197.910 193.344,197.055 193.412,198.100 193.494 " stroke="none" fill="#287c3c" fill-rule="evenodd"></path><path id="path3" d="M43.378 194.200 C 43.379 201.240,43.433 204.064,43.499 200.475 C 43.566 196.886,43.566 191.126,43.499 187.675 C 43.433 184.224,43.378 187.160,43.378 194.200 M198.100 193.494 C 199.145 193.576,200.855 193.576,201.900 193.494 C 202.945 193.412,202.090 193.344,200.000 193.344 C 197.910 193.344,197.055 193.412,198.100 193.494 " stroke="none" fill="#287c3c" fill-rule="evenodd"></path><path id="path4" d="M43.378 194.200 C 43.379 201.240,43.433 204.064,43.499 200.475 C 43.566 196.886,43.566 191.126,43.499 187.675 C 43.433 184.224,43.378 187.160,43.378 194.200 M198.100 193.494 C 199.145 193.576,200.855 193.576,201.900 193.494 C 202.945 193.412,202.090 193.344,200.000 193.344 C 197.910 193.344,197.055 193.412,198.100 193.494 " stroke="none" fill="#287c3c" fill-rule="evenodd"></path></g></svg>